<svg width="24" height="24" viewBox="0 0 24 24" fill="none" xmlns="http://www.w3.org/2000/svg">
<path d="M12 24C18.6274 24 24 18.6274 24 12C24 5.37258 18.6274 0 12 0C5.37258 0 0 5.37258 0 12C0 18.6274 5.37258 24 12 24Z" fill="#FAA069"/>
<path d="M12 22.0999C6.40002 22.0999 1.90002 17.5999 1.90002 11.9999C1.90002 6.3999 6.40002 1.8999 12 1.8999C17.6 1.8999 22.1 6.3999 22.1 11.9999C22.1 17.5999 17.6 22.0999 12 22.0999ZM12 2.4999C6.80002 2.4999 2.50002 6.6999 2.50002 11.9999C2.50002 17.2999 6.80002 21.4999 12 21.4999C17.2 21.4999 21.5 17.2999 21.5 11.9999C21.5 6.6999 17.2 2.4999 12 2.4999Z" fill="#DC7D50"/>
<path d="M6.10002 9.80005C6.40002 9.60005 6.60002 9.40005 6.80002 9.20005C6.90002 9.00005 7.00002 8.90005 7.00002 8.90005C7.00002 8.90005 6.90002 8.80005 6.80002 8.80005C6.60002 8.70005 6.40002 8.70005 6.10002 8.90005C5.70002 9.00005 5.50002 9.30005 5.40002 9.50005C5.50002 9.00005 5.80002 8.60005 6.00002 8.20005C6.10002 8.20005 6.20002 8.30005 6.30002 8.30005C6.50002 8.30005 6.70002 8.30005 6.90002 8.30005C7.20002 8.20005 7.50002 8.10005 7.70002 8.00005C8.00002 7.80005 8.10002 7.70005 8.10002 7.70005C8.10002 7.70005 8.00002 7.60005 7.90002 7.50005C7.80002 7.40005 7.50002 7.30005 7.20002 7.40005C6.80002 7.50005 6.50002 7.60005 6.30002 7.80005C6.50002 7.60005 6.80002 7.30005 7.00002 7.10005C7.00002 7.10005 7.50002 7.10005 8.20002 6.60005C8.90002 6.20005 9.20002 5.60005 9.20002 5.60005C9.20002 5.60005 8.60002 5.40005 7.70002 5.90005C7.10002 6.30005 6.80002 6.80005 6.80002 6.90005C6.60002 7.20005 6.40002 7.40005 6.20002 7.70005C6.30002 7.40005 6.50002 7.10005 6.60002 6.70005C6.70002 6.30005 6.70002 6.10005 6.60002 5.90005C6.50002 5.80005 6.40002 5.70005 6.40002 5.70005C6.40002 5.70005 6.20002 5.80005 6.00002 6.10005C5.80002 6.40005 5.60002 6.70005 5.50002 7.10005C5.50002 7.40005 5.50002 7.60005 5.60002 7.80005C5.70002 8.00005 5.80002 8.10005 5.90002 8.10005C5.60002 8.50005 5.40002 9.00005 5.20002 9.40005C5.30002 9.10005 5.30002 8.80005 5.30002 8.40005C5.30002 8.00005 5.20002 7.80005 5.10002 7.60005C5.00002 7.50005 4.90002 7.50005 4.90002 7.50005C4.90002 7.50005 4.80002 7.70005 4.60002 8.00005C4.50002 8.30005 4.40002 8.70005 4.50002 9.10005C4.50002 9.40005 4.70002 9.60005 4.80002 9.70005C4.80002 9.80005 5.00002 9.90005 5.00002 9.90005C4.80002 10.4001 4.70002 10.9001 4.70002 11.4001C4.70002 11.1001 4.60002 10.8001 4.50002 10.4001C4.40002 10.0001 4.20002 9.80005 4.10002 9.70005C4.00002 9.60005 3.90002 9.60005 3.90002 9.60005C3.90002 9.60005 3.80002 9.80005 3.80002 10.2001C3.80002 10.5001 3.80002 11.0001 4.00002 11.3001C4.10002 11.6001 4.30002 11.7001 4.40002 11.8001C4.50002 11.9001 4.70002 11.9001 4.70002 11.9001C4.70002 12.4001 4.70002 12.9001 4.80002 13.4001C4.70002 13.1001 4.60002 12.8001 4.30002 12.5001C4.10002 12.2001 3.90002 12.0001 3.70002 12.0001C3.50002 11.9001 3.40002 12.0001 3.40002 12.0001C3.40002 12.0001 3.40002 12.2001 3.50002 12.6001C3.60002 12.9001 3.70002 13.3001 4.00002 13.6001C4.20002 13.8001 4.40002 13.9001 4.60002 14.0001C4.80002 14.0001 4.90002 14.0001 4.90002 14.0001C5.00002 14.5001 5.20002 15.0001 5.40002 15.4001C5.20002 15.0001 5.00002 14.7001 4.70002 14.5001C4.40002 14.2001 4.20002 14.2001 4.00002 14.1001C3.80002 14.1001 3.70002 14.1001 3.70002 14.1001C3.70002 14.1001 3.80002 14.3001 3.90002 14.6001C4.00002 14.9001 4.30002 15.2001 4.60002 15.5001C4.90002 15.7001 5.10002 15.7001 5.20002 15.7001C5.40002 15.7001 5.50002 15.6001 5.50002 15.6001C5.80002 16.0001 6.10002 16.4001 6.40002 16.8001C6.20002 16.6001 5.90002 16.4001 5.50002 16.3001C5.10002 16.1001 4.90002 16.1001 4.70002 16.2001C4.50002 16.2001 4.50002 16.3001 4.50002 16.3001C4.50002 16.3001 4.60002 16.5001 4.80002 16.7001C5.00002 16.9001 5.40002 17.2001 5.80002 17.3001C6.10002 17.4001 6.30002 17.4001 6.50002 17.3001C6.70002 17.3001 6.70002 17.2001 6.80002 17.1001C7.20002 17.4001 7.60002 17.7001 8.00002 18.0001C7.70002 17.9001 7.40002 17.8001 7.00002 17.7001C6.60002 17.6001 6.40002 17.7001 6.20002 17.8001C6.00002 17.9001 6.00002 18.0001 6.00002 18.0001C6.00002 18.0001 6.20002 18.2001 6.50002 18.3001C6.80002 18.5001 7.20002 18.6001 7.60002 18.6001C7.90002 18.6001 8.10002 18.5001 8.30002 18.4001C8.40002 18.3001 8.50002 18.2001 8.50002 18.2001C8.90002 18.4001 9.40002 18.6001 9.90002 18.7001C9.60002 18.7001 9.30002 18.7001 8.90002 18.7001C8.50002 18.8001 8.30002 18.9001 8.20002 19.0001C8.00002 19.3001 8.00002 19.4001 8.00002 19.4001C8.00002 19.4001 8.20002 19.5001 8.50002 19.6001C8.80002 19.7001 9.20002 19.7001 9.60002 19.6001C9.90002 19.5001 10.1 19.4001 10.2 19.3001C10.3 19.2001 10.3 19.1001 10.3 19.0001C10.7 19.1001 11.1 19.1001 11.5 19.1001C11.6 19.1001 11.6 19.1001 11.6 19.0001C11.6 18.9001 11.5 18.9001 11.5 18.9001C11.1 18.9001 10.7 18.9001 10.3 18.8001C10.3 18.7001 10.3 18.6001 10.3 18.5001C10.3 18.3001 10.2 18.2001 10 18.0001C9.80002 17.7001 9.60002 17.5001 9.40002 17.4001C9.20002 17.3001 9.10002 17.2001 9.10002 17.2001C9.10002 17.2001 9.00002 17.3001 9.00002 17.5001C9.00002 17.7001 9.00002 17.9001 9.20002 18.2001C9.40002 18.5001 9.70002 18.7001 9.90002 18.8001C9.40002 18.7001 9.00002 18.5001 8.50002 18.3001C8.50002 18.2001 8.60002 18.1001 8.60002 18.0001C8.60002 17.8001 8.60002 17.6001 8.50002 17.4001C8.40002 17.1001 8.20002 16.8001 8.10002 16.6001C8.00002 16.4001 7.80002 16.3001 7.80002 16.3001C7.80002 16.3001 7.70002 16.4001 7.60002 16.5001C7.50002 16.6001 7.50002 16.9001 7.60002 17.2001C7.70002 17.5001 8.00002 17.8001 8.20002 18.0001C7.80002 17.7001 7.40002 17.5001 7.00002 17.1001C7.00002 17.1001 7.10002 17.0001 7.20002 16.8001C7.20002 16.7001 7.30002 16.4001 7.20002 16.2001C7.20002 15.9001 7.10002 15.6001 7.00002 15.4001C6.90002 15.1001 6.80002 15.0001 6.80002 15.0001C6.80002 15.0001 6.70002 15.0001 6.60002 15.2001C6.50002 15.3001 6.40002 15.5001 6.40002 15.9001C6.40002 16.2001 6.50002 16.6001 6.70002 16.8001C6.40002 16.4001 6.10002 16.1001 5.80002 15.6001C5.90002 15.6001 6.00002 15.5001 6.00002 15.4001C6.10002 15.3001 6.20002 15.1001 6.20002 14.8001C6.30002 14.5001 6.20002 14.2001 6.20002 13.9001C6.20002 13.7001 6.10002 13.5001 6.10002 13.5001C6.10002 13.5001 6.00002 13.5001 5.80002 13.6001C5.70002 13.7001 5.50002 13.8001 5.40002 14.2001C5.30002 14.5001 5.30002 14.9001 5.40002 15.2001C5.20002 14.8001 5.00002 14.3001 4.90002 13.8001C5.00002 13.8001 5.10002 13.7001 5.20002 13.6001C5.30002 13.5001 5.50002 13.3001 5.60002 13.1001C5.90002 12.8001 6.00002 12.5001 6.00002 12.3001C6.00002 12.1001 6.10002 11.9001 6.10002 11.9001C6.10002 11.9001 6.00002 11.9001 5.80002 11.9001C5.60002 11.9001 5.40002 12.0001 5.20002 12.4001C5.00002 12.7001 5.00002 13.0001 5.00002 13.3001C4.90002 12.8001 4.90002 12.3001 4.90002 11.9001C5.00002 11.9001 5.10002 11.9001 5.20002 11.8001C5.30002 11.7001 5.50002 11.6001 5.70002 11.4001C5.90002 11.1001 6.10002 10.9001 6.20002 10.7001C6.30002 10.5001 6.40002 10.3001 6.40002 10.3001C6.40002 10.3001 6.30002 10.2001 6.10002 10.2001C5.90002 10.2001 5.70002 10.2001 5.40002 10.5001C5.10002 10.7001 5.00002 11.1001 4.90002 11.3001C4.90002 10.8001 5.10002 10.3001 5.20002 9.90005C5.30002 9.90005 5.40002 9.90005 5.50002 9.90005C5.70002 10.0001 5.90002 9.90005 6.10002 9.80005Z" fill="#DC7D50"/>
<path d="M17.9 9.80015C17.6 9.60015 17.4 9.40015 17.2 9.20015C17.1 9.00015 17 8.90015 17 8.90015C17 8.90015 17.1 8.80015 17.2 8.80015C17.4 8.70015 17.6 8.70015 17.9 8.90015C18.2 9.00015 18.5 9.30015 18.6 9.50015C18.5 9.00015 18.2 8.60015 18 8.20015C17.9 8.20015 17.8 8.30015 17.7 8.30015C17.5 8.30015 17.3 8.30015 17.1 8.30015C16.8 8.20015 16.5 8.10015 16.3 8.00015C16.1 7.90015 16 7.80015 16 7.80015C16 7.80015 16.1 7.70015 16.2 7.60015C16.3 7.50015 16.6 7.40015 16.9 7.50015C17.2 7.60015 17.5 7.70015 17.8 7.90015C17.6 7.60015 17.4 7.40015 17.1 7.20015C17.1 7.20015 16.6 7.20015 15.9 6.70015C15.2 6.30015 14.9 5.70015 14.9 5.70015C14.9 5.70015 15.5 5.50015 16.4 6.00015C17 6.40015 17.3 6.90015 17.3 7.00015C17.6 7.20015 17.8 7.50015 18 7.80015C17.9 7.50015 17.7 7.20015 17.6 6.80015C17.5 6.40015 17.5 6.20015 17.6 6.00015C17.7 5.80015 17.7 5.80015 17.7 5.80015C17.7 5.80015 17.9 5.90015 18.1 6.20015C18.3 6.50015 18.5 6.80015 18.6 7.20015C18.6 7.50015 18.6 7.70015 18.5 7.90015C18.4 8.00015 18.3 8.10015 18.3 8.10015C18.6 8.50015 18.8 9.00015 19 9.40015C18.9 9.10015 18.9 8.80015 18.9 8.40015C18.9 8.00015 19 7.80015 19.1 7.60015C19.2 7.50015 19.3 7.40015 19.3 7.40015C19.3 7.40015 19.4 7.60015 19.6 7.90015C19.7 8.20015 19.8 8.60015 19.8 9.00015C19.8 9.30015 19.6 9.50015 19.5 9.60015C19.2 9.80015 19 9.90015 19 9.90015C19.2 10.4002 19.3 10.9002 19.3 11.4002C19.3 11.1002 19.4 10.8002 19.5 10.4002C19.6 10.0002 19.8 9.80015 19.9 9.70015C20 9.60015 20.1 9.60015 20.1 9.60015C20.1 9.60015 20.2 9.80015 20.2 10.2002C20.2 10.5002 20.2 11.0002 20 11.3002C19.9 11.6002 19.7 11.7002 19.6 11.8002C19.5 11.9002 19.3 11.9002 19.3 11.9002C19.3 12.4002 19.3 12.9002 19.2 13.4002C19.3 13.1002 19.4 12.8002 19.7 12.5002C19.9 12.2002 20.1 12.0002 20.3 12.0002C20.5 11.9002 20.6 12.0002 20.6 12.0002C20.6 12.0002 20.6 12.2002 20.5 12.6002C20.4 12.9002 20.3 13.3002 20 13.6002C19.8 13.8002 19.6 13.9002 19.4 14.0002C19.2 14.0002 19.1 14.0002 19.1 14.0002C19 14.5002 18.8 15.0002 18.6 15.4002C18.8 15.2002 19 14.9002 19.3 14.6002C19.6 14.3002 19.8 14.3002 20 14.2002C20.2 14.2002 20.3 14.2002 20.3 14.2002C20.3 14.2002 20.2 14.4002 20.1 14.7002C20 15.0002 19.7 15.3002 19.4 15.6002C19.1 15.8002 18.9 15.8002 18.8 15.8002C18.6 15.8002 18.5 15.7002 18.5 15.7002C18.2 16.1002 17.9 16.5002 17.6 16.9002C17.8 16.7002 18.1 16.5002 18.5 16.4002C18.9 16.2002 19.1 16.2001 19.3 16.3001C19.5 16.3001 19.5 16.4002 19.5 16.4002C19.5 16.4002 19.4 16.6002 19.2 16.8001C19 17.0001 18.6 17.3001 18.2 17.4002C17.9 17.5002 17.7 17.5002 17.5 17.4002C17.3 17.4002 17.3 17.3002 17.2 17.2002C16.8 17.5002 16.4 17.8002 16 18.1002C16.3 18.0002 16.6 17.9002 17 17.8001C17.4 17.7001 17.6 17.8001 17.8 17.9002C18 18.0002 18 18.1002 18 18.1002C18 18.1002 17.8 18.3001 17.5 18.4002C17.2 18.6002 16.8 18.7002 16.4 18.7002C16.1 18.7002 15.9 18.6002 15.7 18.5002C15.6 18.4002 15.5 18.3001 15.5 18.3001C15.1 18.5001 14.6 18.7001 14.1 18.8001C14.4 18.8001 14.7 18.8001 15.1 18.8001C15.5 18.9002 15.7 19.0002 15.8 19.1002C15.9 19.2002 15.9 19.3001 15.9 19.3001C15.9 19.3001 15.7 19.4002 15.4 19.5002C15.1 19.6002 14.7 19.6002 14.3 19.5002C14 19.4002 13.8 19.3002 13.7 19.2002C13.6 19.1002 13.6 19.0002 13.6 18.9002C13.2 19.0002 12.8 19.0002 12.4 19.0002C12.3 19.0002 12.3 19.0002 12.3 18.9002C12.3 18.8001 12.4 18.8001 12.4 18.8001C12.8 18.8001 13.2 18.8002 13.6 18.7002C13.6 18.6002 13.6 18.5002 13.6 18.4002C13.6 18.2002 13.7 18.1002 13.9 17.9002C14.1 17.6002 14.3 17.4002 14.5 17.3001C14.7 17.2001 14.8 17.1002 14.8 17.1002C14.8 17.1002 14.9 17.2002 14.9 17.4002C14.9 17.6002 14.9 17.8002 14.7 18.1002C14.5 18.4002 14.2 18.6002 14 18.7002C14.5 18.6002 14.9 18.4002 15.4 18.2002C15.4 18.1002 15.3 18.0002 15.3 17.9002C15.3 17.7002 15.3 17.5001 15.4 17.3001C15.5 17.0001 15.7 16.7002 15.8 16.5002C15.9 16.3002 16.1 16.2002 16.1 16.2002C16.1 16.2002 16.2 16.3001 16.3 16.4002C16.4 16.5002 16.4 16.8002 16.3 17.1002C16.2 17.4002 16 17.7002 15.8 17.9002C16.2 17.6002 16.6 17.4002 17 17.0002C17 17.0002 16.9 16.9002 16.8 16.7002C16.8 16.6002 16.7 16.3002 16.8 16.1002C16.8 15.8002 16.9 15.5002 17 15.3002C17.1 15.1002 17.2 14.9002 17.2 14.9002C17.2 14.9002 17.3 14.9002 17.4 15.1002C17.5 15.2002 17.6 15.4002 17.6 15.8002C17.6 16.1002 17.5 16.5002 17.3 16.7002C17.6 16.3002 17.9 16.0002 18.2 15.5002C18.1 15.5002 18 15.4002 18 15.3002C17.9 15.2002 17.8 15.0002 17.8 14.7002C17.7 14.4002 17.8 14.1002 17.8 13.8002C17.8 13.6002 17.9 13.4002 17.9 13.4002C17.9 13.4002 18 13.4002 18.2 13.5002C18.3 13.6002 18.5 13.7002 18.6 14.1002C18.7 14.4002 18.7 14.8002 18.6 15.1002C18.8 14.7002 19 14.2002 19.1 13.7002C19 13.7002 18.9 13.6002 18.8 13.5002C18.7 13.4002 18.5 13.2002 18.4 13.0002C18.2 12.7002 18.2 12.4002 18.1 12.2002C18.1 12.0002 18 11.8002 18 11.8002C18 11.8002 18.1 11.8002 18.3 11.8002C18.5 11.8002 18.7 11.9002 18.9 12.3002C19 12.7002 19 13.0002 19 13.3002C19.1 12.8002 19.1 12.3002 19.1 11.9002C19 11.9002 18.9 11.9002 18.8 11.8002C18.7 11.7002 18.5 11.6002 18.3 11.4002C18.1 11.1002 17.9 10.9002 17.8 10.7002C17.7 10.5002 17.6 10.3002 17.6 10.3002C17.6 10.3002 17.7 10.2002 17.9 10.2002C18.1 10.2002 18.3 10.2002 18.6 10.5002C18.9 10.7002 19 11.1002 19.1 11.3002C19.1 10.8002 18.9 10.3002 18.8 9.90015C18.7 9.90015 18.6 9.90015 18.5 9.90015C18.3 10.0002 18.1 9.90015 17.9 9.80015Z" fill="#DC7D50"/>
</svg>
