<svg width="24" height="24" viewBox="0 0 24 24" fill="none" xmlns="http://www.w3.org/2000/svg">
<path d="M24 11.9983C24 18.6244 18.6278 23.9967 12.0017 23.9967C5.37224 24 0 18.6278 0 11.9983C0 5.37224 5.37224 0 11.9983 0C18.6278 0 24 5.37224 24 11.9983Z" fill="#FFC300"/>
<path d="M11.9983 22.1059C6.42593 22.1059 1.89404 17.574 1.89404 12.0017C1.89404 6.42935 6.42593 1.89746 11.9983 1.89746C17.5706 1.89746 22.1025 6.42935 22.1025 12.0017C22.1025 17.574 17.5706 22.1059 11.9983 22.1059ZM11.9983 2.52772C6.77608 2.52772 2.52431 6.77616 2.52431 12.0017C2.52431 17.2272 6.77274 21.4756 11.9983 21.4756C17.2238 21.4756 21.4722 17.2272 21.4722 12.0017C21.4722 6.77616 17.2238 2.52772 11.9983 2.52772Z" fill="#F59B19"/>
<path d="M6.09582 9.76417C6.38594 9.58743 6.60937 9.37734 6.76943 9.20727C6.9295 9.0372 7.01954 8.91048 7.01954 8.90715C7.01954 8.90715 6.94284 8.82711 6.78277 8.77376C6.62604 8.72374 6.38594 8.69706 6.06247 8.84712C5.74567 8.99718 5.50557 9.26063 5.35885 9.48739C5.54226 9.04053 5.77235 8.61036 6.0458 8.21352C6.09915 8.25354 6.20253 8.31023 6.35593 8.33691C6.50933 8.36359 6.71274 8.35692 6.96952 8.28689C7.29632 8.20018 7.5731 8.05679 7.76985 7.94008C7.96993 7.82336 8.09332 7.72332 8.09332 7.72332C8.09332 7.72332 8.03996 7.62328 7.90324 7.5299C7.76652 7.43653 7.54309 7.34316 7.18961 7.39985C6.84613 7.45654 6.54267 7.64329 6.33258 7.82003C6.54267 7.55658 6.76943 7.30981 7.01287 7.07972C7.01287 7.07972 7.52308 7.05971 8.23338 6.62619C8.89699 6.24604 9.23713 5.58576 9.23713 5.58576C9.23713 5.58576 8.63354 5.40569 7.78319 5.89922C7.14959 6.30606 6.93283 6.82628 6.88615 6.94633C6.63271 7.18309 6.39594 7.43987 6.18252 7.71331C6.31258 7.46321 6.46931 7.12974 6.56935 6.76292C6.66939 6.38609 6.65272 6.13266 6.59269 5.96925C6.536 5.80585 6.44263 5.74249 6.44263 5.74249C6.44263 5.74249 6.26256 5.88922 6.06247 6.15266C5.86239 6.41277 5.6523 6.7896 5.59228 7.1931C5.54559 7.5099 5.59561 7.72332 5.66898 7.86671C5.74234 8.0101 5.83238 8.08013 5.88907 8.11682C5.60562 8.52699 5.36885 8.9705 5.18211 9.43403C5.2388 9.15725 5.29549 8.79376 5.28882 8.41027C5.28215 8.02011 5.19211 7.78334 5.09207 7.64329C4.99203 7.50323 4.88532 7.46654 4.88532 7.46654C4.88532 7.46654 4.75193 7.65996 4.63188 7.96675C4.51183 8.27355 4.41512 8.69039 4.46848 9.09722C4.51183 9.41402 4.62187 9.60744 4.73192 9.72415C4.84196 9.84087 4.95201 9.88422 5.01204 9.90089C4.85864 10.3744 4.75526 10.868 4.70191 11.3648C4.67856 11.0847 4.63188 10.7212 4.51516 10.3544C4.39845 9.98426 4.24505 9.77751 4.11166 9.67413C3.97827 9.56742 3.86489 9.56075 3.86489 9.56409C3.86489 9.56409 3.79153 9.78751 3.76151 10.1143C3.7315 10.4411 3.75818 10.8713 3.92158 11.2448C4.05163 11.5382 4.2117 11.6883 4.34842 11.7717C4.48515 11.8517 4.6052 11.865 4.66856 11.865C4.65188 12.3619 4.68857 12.8655 4.7786 13.3557C4.67523 13.0922 4.53183 12.7554 4.31841 12.4353C4.10166 12.1118 3.89824 11.9584 3.74151 11.8951C3.58144 11.8317 3.47139 11.8584 3.47139 11.8584C3.47139 11.8584 3.46472 12.0918 3.52808 12.4153C3.59144 12.7354 3.73484 13.1422 3.99494 13.4557C4.2017 13.7025 4.39511 13.8025 4.54851 13.8425C4.70524 13.8826 4.81862 13.8625 4.88198 13.8425C5.00537 14.3261 5.18211 14.7963 5.4022 15.2431C5.23213 15.0197 4.9987 14.7362 4.70524 14.4895C4.40845 14.2394 4.16835 14.146 3.99828 14.1293C3.82821 14.1126 3.72817 14.166 3.72817 14.166C3.72817 14.166 3.78486 14.3961 3.93825 14.6862C4.08832 14.9763 4.34176 15.3298 4.67856 15.5532C4.94534 15.7333 5.1621 15.7733 5.32216 15.77C5.48223 15.7633 5.58561 15.7133 5.6423 15.6766C5.89574 16.1068 6.19586 16.5103 6.536 16.8738C6.30924 16.7071 6.00578 16.5003 5.65564 16.3469C5.29882 16.1902 5.04538 16.1668 4.87531 16.2002C4.70524 16.2302 4.62854 16.3102 4.62854 16.3102C4.62854 16.3102 4.74859 16.5136 4.97535 16.7504C5.20211 16.9872 5.54226 17.254 5.92908 17.374C6.23588 17.4707 6.45264 17.4507 6.60603 17.404C6.75609 17.354 6.84613 17.274 6.88615 17.2239C7.24963 17.5674 7.6498 17.8709 8.07664 18.1277C7.80987 18.0309 7.46306 17.9142 7.0829 17.8642C6.69607 17.8109 6.44597 17.8609 6.29257 17.9409C6.13917 18.0176 6.08582 18.1177 6.08582 18.1177C6.08582 18.1177 6.25589 18.2777 6.53934 18.4445C6.82279 18.6112 7.22296 18.7713 7.62979 18.7813C7.94993 18.7879 8.15668 18.7079 8.28673 18.6212C8.42012 18.5312 8.48015 18.4311 8.50682 18.3711C8.95034 18.5979 9.42054 18.7779 9.90407 18.9046C9.62062 18.8846 9.25714 18.8746 8.87698 18.9313C8.49015 18.9914 8.26672 19.1081 8.14 19.2248C8.01329 19.3415 7.98994 19.4515 7.98994 19.4515C7.98994 19.4515 8.20003 19.5583 8.52016 19.6383C8.83696 19.7183 9.26714 19.7617 9.66064 19.655C9.97077 19.5716 10.1442 19.4382 10.2475 19.3148C10.3476 19.1914 10.3776 19.0781 10.3876 19.0114C10.7778 19.0847 11.1746 19.1281 11.5748 19.1347C11.6481 19.1347 11.7082 19.0947 11.7082 19.0447C11.7082 18.9947 11.6515 18.9513 11.5781 18.9513C11.1913 18.9447 10.8044 18.9046 10.4243 18.8313C10.4376 18.7679 10.451 18.6512 10.411 18.4978C10.3743 18.3477 10.2842 18.161 10.1208 17.9543C9.91074 17.6875 9.67064 17.4941 9.4839 17.3573C9.29715 17.2206 9.15709 17.1472 9.15709 17.1472C9.15709 17.1472 9.08707 17.234 9.05372 17.3974C9.02371 17.5608 9.02704 17.8042 9.22045 18.1043C9.41053 18.3978 9.70065 18.6012 9.94742 18.7212C9.48056 18.5979 9.02704 18.4244 8.59353 18.2044C8.62687 18.1477 8.67023 18.0376 8.6769 17.8809C8.68356 17.7242 8.65022 17.5241 8.55018 17.2773C8.42346 16.9605 8.24672 16.7104 8.10332 16.527C7.95993 16.3436 7.84655 16.2335 7.84655 16.2335C7.84655 16.2335 7.75651 16.2969 7.67981 16.447C7.60645 16.5937 7.54309 16.8305 7.64313 17.1706C7.74317 17.5041 7.96326 17.7842 8.16668 17.9676C7.75318 17.7175 7.36635 17.424 7.01287 17.0939C7.05955 17.0472 7.13292 16.9538 7.1796 16.8071C7.22963 16.6604 7.25297 16.457 7.22629 16.1902C7.18961 15.8534 7.0929 15.5599 7.0062 15.3432C6.9195 15.1264 6.8428 14.9897 6.8428 14.9897C6.8428 14.9897 6.73609 15.0264 6.62271 15.1464C6.50933 15.2665 6.38261 15.4732 6.38594 15.83C6.38928 16.1768 6.526 16.507 6.66939 16.7404C6.34259 16.3869 6.05247 15.9934 5.8057 15.5799C5.86239 15.5499 5.9591 15.4799 6.0458 15.3498C6.13584 15.2231 6.21587 15.033 6.26256 14.7729C6.32258 14.4395 6.30924 14.1327 6.28923 13.9026C6.26589 13.6725 6.22921 13.5191 6.22921 13.5191C6.22921 13.5191 6.11916 13.5257 5.97577 13.6091C5.83238 13.6925 5.6523 13.8559 5.55559 14.1994C5.45889 14.5362 5.4989 14.8896 5.57227 15.1531C5.35551 14.7196 5.18544 14.266 5.06539 13.7959C5.12875 13.7825 5.24213 13.7425 5.36218 13.6458C5.48223 13.5491 5.61228 13.389 5.73233 13.1522C5.8824 12.8488 5.9591 12.5487 6.00245 12.3219C6.0458 12.0951 6.0558 11.9351 6.05247 11.9351C6.05247 11.9351 5.94242 11.9084 5.78236 11.9517C5.62229 11.9918 5.40553 12.1018 5.21212 12.4019C5.02537 12.6954 4.96535 13.0489 4.96201 13.319C4.87531 12.8421 4.84196 12.3586 4.85864 11.8751C4.92533 11.8784 5.04205 11.8717 5.18544 11.8117C5.32883 11.7517 5.4989 11.6349 5.67898 11.4382C5.90908 11.1881 6.06247 10.9213 6.16918 10.7146C6.27256 10.5078 6.32592 10.3578 6.32592 10.3578C6.32592 10.3578 6.22921 10.3044 6.06247 10.2977C5.89574 10.2944 5.65897 10.3344 5.39219 10.5712C5.13208 10.8046 4.97535 11.1247 4.89532 11.3848C4.94534 10.9046 5.04538 10.4278 5.19544 9.96759C5.25547 9.99093 5.37218 10.0176 5.52558 9.9976C5.67564 9.96759 5.86906 9.90423 6.09582 9.76417Z" fill="#F59B19"/>
<path d="M17.9042 9.76417C17.614 9.58743 17.3906 9.37734 17.2305 9.20727C17.0705 9.0372 16.9804 8.91048 16.9804 8.90715C16.9804 8.90715 17.0571 8.82711 17.2172 8.77376C17.3739 8.72374 17.6174 8.69706 17.9375 8.84712C18.2543 8.99718 18.4944 9.26063 18.6445 9.48739C18.4611 9.04053 18.231 8.61036 17.9575 8.21352C17.9042 8.25354 17.8008 8.31023 17.6474 8.33691C17.494 8.36359 17.2906 8.35692 17.0338 8.28689C16.7037 8.20018 16.4302 8.05679 16.2301 7.94008C16.0301 7.82336 15.9067 7.72332 15.9067 7.72332C15.9067 7.72332 15.96 7.62328 16.0967 7.5299C16.2335 7.43653 16.4569 7.34316 16.8104 7.39985C17.1539 7.45654 17.4573 7.64329 17.6674 7.82003C17.4573 7.55658 17.2305 7.30981 16.9871 7.07972C16.9871 7.07972 16.4769 7.05971 15.7666 6.62619C15.103 6.24604 14.7629 5.58576 14.7629 5.58576C14.7629 5.58576 15.3631 5.40569 16.2168 5.89922C16.8504 6.30606 17.0671 6.82628 17.1138 6.94633C17.3673 7.18309 17.604 7.43987 17.8175 7.71331C17.6874 7.46321 17.5307 7.12974 17.4306 6.76292C17.3306 6.38609 17.3506 6.13266 17.4073 5.96925C17.464 5.80585 17.5574 5.74249 17.5574 5.74249C17.5574 5.74249 17.7374 5.88922 17.9375 6.15266C18.1376 6.41277 18.3477 6.7896 18.4077 7.1931C18.4544 7.5099 18.4044 7.72332 18.331 7.86671C18.2576 8.0101 18.1676 8.08013 18.1109 8.11682C18.391 8.52699 18.6311 8.9705 18.8179 9.43403C18.7612 9.15725 18.7045 8.79376 18.7112 8.41027C18.7178 8.02011 18.8079 7.78334 18.9079 7.64329C19.008 7.50323 19.1147 7.46654 19.1147 7.46654C19.1147 7.46654 19.2481 7.65996 19.3681 7.96675C19.4882 8.27355 19.5849 8.69039 19.5315 9.09722C19.4882 9.41402 19.3781 9.60744 19.2681 9.72415C19.158 9.84087 19.0513 9.88422 18.9879 9.90089C19.1413 10.3744 19.2481 10.868 19.2981 11.3648C19.3214 11.0847 19.3681 10.7212 19.4848 10.3544C19.6015 9.98426 19.7549 9.77751 19.8883 9.67413C20.0217 9.56742 20.1351 9.56075 20.1351 9.56409C20.1351 9.56409 20.2085 9.78751 20.2385 10.1143C20.2685 10.4411 20.2418 10.8713 20.0784 11.2448C19.9483 11.5382 19.7883 11.6883 19.6516 11.7717C19.5148 11.8517 19.3948 11.865 19.3314 11.865C19.3481 12.3619 19.3114 12.8655 19.2214 13.3557C19.3214 13.0922 19.4681 12.7554 19.6816 12.4353C19.8983 12.1118 20.1017 11.9584 20.2585 11.8951C20.4152 11.8317 20.5286 11.8584 20.5286 11.8584C20.5286 11.8584 20.5386 12.0918 20.4719 12.4153C20.4085 12.7354 20.2651 13.1422 20.005 13.4557C19.7983 13.7025 19.6049 13.8025 19.4481 13.8425C19.2947 13.8826 19.178 13.8625 19.1147 13.8425C18.9913 14.3261 18.8145 14.7963 18.5911 15.2431C18.7645 15.0197 18.9946 14.7362 19.2881 14.4895C19.5849 14.2394 19.825 14.146 19.995 14.1293C20.1651 14.1126 20.2651 14.166 20.2651 14.166C20.2651 14.166 20.2085 14.3961 20.0551 14.6862C19.905 14.9763 19.6516 15.3298 19.3148 15.5532C19.048 15.7333 18.8312 15.7733 18.6712 15.77C18.5111 15.7633 18.4077 15.7133 18.351 15.6766C18.0976 16.1068 17.7975 16.5103 17.4573 16.8738C17.6841 16.7071 17.9875 16.5003 18.3377 16.3469C18.6945 16.1902 18.9479 16.1668 19.118 16.2002C19.2847 16.2302 19.3648 16.3102 19.3648 16.3102C19.3648 16.3102 19.2447 16.5136 19.018 16.7504C18.7912 16.9872 18.4511 17.254 18.0642 17.374C17.7574 17.4707 17.5407 17.4507 17.3873 17.404C17.2372 17.354 17.1505 17.274 17.1072 17.2239C16.7437 17.5674 16.3435 17.8709 15.9167 18.1277C16.1801 18.0309 16.5303 17.9142 16.9104 17.8642C17.2972 17.8109 17.5473 17.8609 17.7007 17.9409C17.8541 18.0176 17.9075 18.1177 17.9075 18.1177C17.9075 18.1177 17.7374 18.2777 17.454 18.4445C17.1705 18.6112 16.7704 18.7713 16.3635 18.7813C16.0434 18.7879 15.8366 18.7079 15.7066 18.6212C15.5732 18.5312 15.5132 18.4311 15.4865 18.3711C15.043 18.5979 14.5728 18.7779 14.0892 18.9046C14.3727 18.8846 14.7362 18.8746 15.1163 18.9313C15.4998 18.9914 15.7266 19.1081 15.8533 19.2248C15.98 19.3415 16.0034 19.4515 16.0034 19.4515C16.0034 19.4515 15.7933 19.5583 15.4732 19.6383C15.1564 19.7183 14.7262 19.7617 14.3327 19.655C14.0225 19.5716 13.8491 19.4382 13.7458 19.3148C13.6424 19.1914 13.6157 19.0781 13.6057 19.0114C13.2155 19.0847 12.8187 19.1281 12.4185 19.1347C12.3452 19.1347 12.2852 19.0947 12.2852 19.0447C12.2852 18.9947 12.3418 18.9513 12.4152 18.9513C12.802 18.9447 13.1889 18.9046 13.569 18.8313C13.5557 18.7679 13.5423 18.6512 13.5824 18.4978C13.619 18.3477 13.7057 18.161 13.8725 17.9543C14.0826 17.6875 14.3227 17.4941 14.5094 17.3573C14.6962 17.2206 14.8362 17.1472 14.8362 17.1472C14.8362 17.1472 14.9062 17.234 14.9363 17.3974C14.9663 17.5608 14.9629 17.8042 14.7729 18.1043C14.5861 18.3978 14.2927 18.6012 14.0459 18.7212C14.5128 18.5979 14.9663 18.4244 15.3965 18.2044C15.3664 18.1477 15.3198 18.0376 15.3164 17.8809C15.3097 17.7242 15.3431 17.5241 15.4431 17.2773C15.5699 16.9605 15.7466 16.7104 15.89 16.527C16.0334 16.3436 16.1468 16.2335 16.1468 16.2335C16.1468 16.2335 16.2368 16.2969 16.3135 16.447C16.3902 16.5937 16.4536 16.8305 16.3535 17.1706C16.2535 17.5041 16.0301 17.7842 15.83 17.9676C16.2435 17.7175 16.6303 17.424 16.9838 17.0939C16.9371 17.0472 16.8637 16.9538 16.817 16.8071C16.767 16.6604 16.7437 16.457 16.7704 16.1902C16.807 15.8534 16.9037 15.5599 16.9904 15.3432C17.0772 15.1264 17.1539 14.9897 17.1539 14.9897C17.1539 14.9897 17.2606 15.0264 17.3739 15.1464C17.4873 15.2665 17.614 15.4732 17.6107 15.83C17.6074 16.1768 17.4706 16.507 17.3273 16.7404C17.6541 16.3869 17.9442 15.9934 18.1909 15.5799C18.1343 15.5499 18.0376 15.4799 17.9508 15.3498C17.8608 15.2231 17.7808 15.033 17.7341 14.7729C17.6741 14.4395 17.6874 14.1327 17.7074 13.9026C17.7308 13.6725 17.7641 13.5191 17.7674 13.5191C17.7674 13.5191 17.8775 13.5257 18.0242 13.6091C18.1676 13.6925 18.3443 13.8559 18.4444 14.1994C18.5411 14.5362 18.5011 14.8896 18.4277 15.1531C18.6445 14.7196 18.8112 14.266 18.9313 13.7959C18.8679 13.7825 18.7545 13.7425 18.6345 13.6458C18.5144 13.5491 18.3844 13.389 18.2643 13.1522C18.1143 12.8488 18.0376 12.5487 17.9942 12.3219C17.9508 12.0951 17.9408 11.9351 17.9442 11.9351C17.9442 11.9351 18.0542 11.9084 18.2143 11.9517C18.3744 11.9918 18.5911 12.1018 18.7812 12.4019C18.9679 12.6954 19.028 13.0489 19.0313 13.319C19.118 12.8421 19.1513 12.3586 19.1347 11.8751C19.068 11.8784 18.9513 11.8717 18.8079 11.8117C18.6645 11.7517 18.4977 11.6349 18.3143 11.4382C18.0842 11.1881 17.9308 10.9213 17.8275 10.7146C17.7241 10.5078 17.6707 10.3578 17.6707 10.3578C17.6707 10.3578 17.7674 10.3044 17.9342 10.2977C18.1009 10.2944 18.3377 10.3344 18.6045 10.5712C18.8646 10.8046 19.0213 11.1247 19.1013 11.3848C19.0513 10.9046 18.9513 10.4278 18.8012 9.96759C18.7378 9.99093 18.6245 10.0176 18.4711 9.9976C18.3243 9.96759 18.1309 9.90423 17.9042 9.76417Z" fill="#F59B19"/>
</svg>
