<svg width="32" height="18" viewBox="0 0 32 18" fill="none" xmlns="http://www.w3.org/2000/svg">
<path d="M27.5405 11.4453C28.602 12.4754 29.7223 13.4446 30.6743 14.5786C31.0949 15.0825 31.493 15.6025 31.7977 16.1873C32.2293 17.0186 31.8383 17.9335 31.0884 17.9831L26.4265 17.981C25.2242 18.0802 24.265 17.5991 23.4585 16.7819C22.8131 16.1284 22.2153 15.4329 21.5947 14.7574C21.3402 14.4813 21.0739 14.2215 20.7558 14.0161C20.1194 13.6056 19.567 13.7313 19.2033 14.391C18.8329 15.0621 18.7489 15.8051 18.7125 16.5529C18.6626 17.644 18.3308 17.9309 17.2281 17.9809C14.8715 18.0913 12.635 17.737 10.5573 16.5553C8.72559 15.5136 7.30522 14.043 6.06885 12.3781C3.66179 9.13634 1.81836 5.57405 0.161613 1.91198C-0.211324 1.08692 0.0614256 0.644036 0.977298 0.628318C2.49811 0.598934 4.01873 0.601046 5.54135 0.626207C6.15947 0.635214 6.56866 0.98758 6.80734 1.568C7.63016 3.57901 8.63697 5.49229 9.90071 7.26573C10.2373 7.73787 10.5805 8.21008 11.0691 8.54237C11.6097 8.91033 12.0213 8.78838 12.2756 8.18976C12.437 7.81018 12.5077 7.40135 12.5441 6.99487C12.6646 5.59629 12.6805 4.20006 12.4691 2.80637C12.3394 1.93658 11.8465 1.37349 10.9733 1.20893C10.5278 1.125 10.5941 0.960183 10.8098 0.707402C11.1845 0.271418 11.537 0 12.2395 0H17.5081C18.3376 0.162702 18.5218 0.533083 18.6353 1.36262L18.6398 7.17969C18.6308 7.50081 18.8012 8.45385 19.3831 8.66637C19.8489 8.81771 20.1559 8.44733 20.4354 8.15379C21.6968 6.82304 22.5971 5.25032 23.4014 3.62181C23.7584 2.90571 24.0653 2.16209 24.3627 1.41903C24.5831 0.867681 24.9289 0.596387 25.5537 0.608377L30.6245 0.61285C30.7748 0.61285 30.927 0.615024 31.0726 0.639812C31.927 0.78456 32.1612 1.14991 31.8973 1.97926C31.4815 3.28044 30.6724 4.36481 29.8813 5.45415C29.0357 6.61716 28.1313 7.74042 27.2927 8.91033C26.5222 9.97886 26.5834 10.5173 27.5405 11.4453Z" fill="white"/>
</svg>
