<svg width="33" height="21" viewBox="0 0 33 21" fill="none" xmlns="http://www.w3.org/2000/svg">
<path d="M11.5172 12.6662H16.6459C15.7456 15.2109 13.3075 17.0354 10.453 17.0143C6.98955 16.9888 4.12572 14.2186 3.99126 10.7583C3.84713 7.04904 6.8235 3.9855 10.502 3.9855C12.1839 3.9855 13.7187 4.62623 14.8759 5.67613C15.1499 5.92487 15.5671 5.92645 15.8367 5.67276L17.7204 3.9002C18.015 3.62295 18.016 3.15476 17.7223 2.87658C15.8873 1.1384 13.4256 0.0549775 10.711 0.00197751C4.92102 -0.111041 0.0405918 4.63525 0.000261249 10.4251C-0.0404275 16.2585 4.67695 21 10.502 21C16.1037 21 20.6799 16.6147 20.9865 11.0906C20.9946 11.0213 21 8.68065 21 8.68065H11.5172C11.1285 8.68065 10.8135 8.99565 10.8135 9.38426V11.9626C10.8135 12.3512 11.1286 12.6662 11.5172 12.6662Z" fill="#F34A38"/>
<path d="M29.7421 8.93214V6.57656C29.7421 6.25811 29.4553 6 29.1015 6H26.8985C26.5447 6 26.2579 6.25811 26.2579 6.57656V8.93214H23.6406C23.2868 8.93214 23 9.19024 23 9.50869V11.4913C23 11.8098 23.2868 12.0679 23.6406 12.0679H26.2579V14.4234C26.2579 14.7419 26.5447 15 26.8985 15H29.1015C29.4553 15 29.7421 14.7419 29.7421 14.4234V12.0679H32.3594C32.7132 12.0679 33 11.8098 33 11.4913V9.50869C33 9.19024 32.7132 8.93214 32.3594 8.93214H29.7421Z" fill="#F34A38"/>
</svg>
