<svg width="87" height="87" viewBox="0 0 87 87" fill="none" xmlns="http://www.w3.org/2000/svg">
<path d="M87 67.1361C87 78.1131 78.1131 87 67.1361 87H19.8639C8.88691 87 0 78.1131 0 67.1361V19.8809C0 8.90391 8.90391 0 19.8809 0H66.8303C77.9771 0 87 9.02285 87 20.1697V67.1361Z" fill="url(#paint0_radial)"/>
<path d="M55.5984 11.9976H31.4016C20.6795 11.9976 11.9795 20.6976 11.9795 31.4196V55.5995C11.9795 66.3216 20.6625 75.0046 31.4016 75.0046H55.5814C66.3035 75.0046 74.9865 66.3216 74.9865 55.5995V31.4196C75.0035 20.6806 66.3205 11.9976 55.5984 11.9976ZM68.9543 53.2716C68.9543 61.9376 61.9365 68.9554 53.2705 68.9554H33.7295C25.0635 68.9554 18.0457 61.9376 18.0457 53.2716V33.7306C18.0457 25.0646 25.0635 18.0468 33.7295 18.0468H53.2705C61.9365 18.0468 68.9543 25.0815 68.9543 33.7306V53.2716Z" fill="white"/>
<path d="M44.35 27.0176C35.1742 27.0176 27.7487 34.4432 27.7487 43.6189C27.7487 52.7777 35.1742 60.2203 44.35 60.2203C53.5088 60.2203 60.9514 52.7947 60.9514 43.6189C60.9344 34.4432 53.5088 27.0176 44.35 27.0176ZM44.35 53.5934C38.8276 53.5934 34.3586 49.1244 34.3586 43.602C34.3586 38.0795 38.8276 33.6105 44.35 33.6105C49.8555 33.6105 54.3414 38.0795 54.3414 43.602C54.3244 49.1244 49.8555 53.5934 44.35 53.5934Z" fill="white"/>
<path d="M64.0094 26.7638C64.0094 29.0917 62.1233 30.9778 59.7954 30.9778C57.4674 30.9778 55.5813 29.0917 55.5813 26.7638C55.5813 24.4358 57.4674 22.5327 59.7954 22.5327C62.1233 22.5327 64.0094 24.4188 64.0094 26.7638Z" fill="white"/>
<defs>
<radialGradient id="paint0_radial" cx="0" cy="0" r="1" gradientUnits="userSpaceOnUse" gradientTransform="translate(25.4829 93.7356) scale(115.288 115.285)">
<stop offset="0.0969388" stop-color="#FFD87A"/>
<stop offset="0.1426" stop-color="#FCCE78"/>
<stop offset="0.2263" stop-color="#F5B471"/>
<stop offset="0.3378" stop-color="#EB8D65"/>
<stop offset="0.449" stop-color="#E36058"/>
<stop offset="0.6786" stop-color="#CD3694"/>
<stop offset="1" stop-color="#6668B0"/>
</radialGradient>
</defs>
</svg>
