<svg width="38" height="63" viewBox="0 0 38 63" fill="none" xmlns="http://www.w3.org/2000/svg">
<path d="M13.2955 23.623H24.1221L36.9237 0H26.0919L13.2955 23.623Z" fill="#3773CC"/>
<path d="M25.1044 32.9372H12.3027C10.6758 32.9372 9.35046 31.6118 9.35046 29.985V24.6107C9.35046 22.9838 10.6758 21.6584 12.3027 21.6584H25.1044C26.7312 21.6584 28.0566 22.9838 28.0566 24.6107V29.985C28.0566 31.6118 26.7312 32.9372 25.1044 32.9372ZM12.3027 23.6231C11.7621 23.6231 11.3204 24.0649 11.3204 24.6055V29.9798C11.3204 30.5255 11.7621 30.9621 12.3027 30.9621H25.1044C25.6449 30.9621 26.0867 30.5203 26.0867 29.9798V24.6107C26.0867 24.0649 25.6449 23.6283 25.1044 23.6283H12.3027V23.6231Z" fill="#F59B19"/>
<path d="M37.4071 44.2991C37.4071 54.6267 29.0337 63 18.7061 63C8.37332 63 0 54.6267 0 44.2991C0 33.9715 8.37332 25.5981 18.7009 25.5981C29.0337 25.5929 37.4071 33.9663 37.4071 44.2991Z" fill="#FFC300"/>
<path d="M18.7009 60.0477C10.0157 60.0477 2.95221 52.9842 2.95221 44.299C2.95221 35.6138 10.0157 28.5503 18.7009 28.5503C27.3861 28.5503 34.4496 35.6138 34.4496 44.299C34.4496 52.9842 27.3861 60.0477 18.7009 60.0477ZM18.7009 29.5326C10.5615 29.5326 3.93455 36.1544 3.93455 44.299C3.93455 52.4436 10.5563 59.0653 18.7009 59.0653C26.8455 59.0653 33.4673 52.4436 33.4673 44.299C33.4673 36.1544 26.8455 29.5326 18.7009 29.5326Z" fill="#F59B19"/>
<path d="M24.1168 23.623H13.2902L0.493774 0H11.3204L24.1168 23.623Z" fill="#3D9BE8"/>
<path d="M9.50122 40.8167C9.95341 40.5412 10.3016 40.2138 10.5511 39.9487C10.8006 39.6836 10.941 39.4861 10.941 39.4809C10.941 39.4809 10.8214 39.3562 10.5719 39.273C10.3276 39.195 9.95341 39.1535 9.44924 39.3873C8.95547 39.6212 8.58124 40.0318 8.35255 40.3853C8.63842 39.6888 8.99705 39.0183 9.42325 38.3998C9.50642 38.4622 9.66754 38.5505 9.90663 38.5921C10.1457 38.6337 10.4628 38.6233 10.863 38.5142C11.3724 38.379 11.8038 38.1555 12.1104 37.9736C12.4223 37.7917 12.6146 37.6358 12.6146 37.6358C12.6146 37.6358 12.5314 37.4798 12.3183 37.3343C12.1052 37.1888 11.757 37.0432 11.206 37.1316C10.6707 37.22 10.1977 37.511 9.87025 37.7865C10.1977 37.3759 10.5511 36.9913 10.9306 36.6326C10.9306 36.6326 11.7258 36.6014 12.8329 35.9258C13.8672 35.3332 14.3973 34.3041 14.3973 34.3041C14.3973 34.3041 13.4566 34.0234 12.1312 34.7927C11.1437 35.4268 10.8058 36.2376 10.733 36.4247C10.338 36.7937 9.969 37.194 9.63636 37.6202C9.83906 37.2303 10.0833 36.7106 10.2393 36.1389C10.3952 35.5515 10.3692 35.1565 10.2757 34.9018C10.1873 34.6471 10.0418 34.5484 10.0418 34.5484C10.0418 34.5484 9.7611 34.7771 9.44924 35.1877C9.13739 35.5931 8.80994 36.1804 8.71638 36.8093C8.64362 37.3031 8.72158 37.6358 8.83593 37.8593C8.95027 38.0828 9.09061 38.1919 9.17897 38.2491C8.73717 38.8884 8.36814 39.5797 8.07708 40.3021C8.16544 39.8707 8.2538 39.3042 8.2434 38.7065C8.23301 38.0983 8.09267 37.7293 7.93674 37.511C7.78082 37.2927 7.61449 37.2355 7.61449 37.2355C7.61449 37.2355 7.40659 37.537 7.21948 38.0152C7.03236 38.4934 6.88163 39.1431 6.96479 39.7772C7.03236 40.2709 7.20388 40.5724 7.3754 40.7543C7.54692 40.9362 7.71845 41.0038 7.812 41.0298C7.57291 41.7678 7.41179 42.5371 7.32863 43.3115C7.29224 42.8749 7.21948 42.3084 7.03756 41.7367C6.85564 41.1597 6.61656 40.8375 6.40865 40.6763C6.20075 40.51 6.02403 40.4996 6.02403 40.5048C6.02403 40.5048 5.90968 40.8531 5.86291 41.3624C5.81613 41.8718 5.85771 42.5423 6.11239 43.1244C6.3151 43.5818 6.56458 43.8157 6.77768 43.9456C6.99078 44.0704 7.1779 44.0912 7.27665 44.0912C7.25066 44.8656 7.30784 45.6504 7.44817 46.4145C7.28705 46.0039 7.06355 45.4789 6.7309 44.98C6.39306 44.4758 6.07601 44.2367 5.83172 44.1379C5.58224 44.0392 5.41071 44.0808 5.41071 44.0808C5.41071 44.0808 5.40032 44.4446 5.49907 44.9488C5.59783 45.4477 5.82132 46.0818 6.22674 46.5704C6.54899 46.955 6.85045 47.111 7.08954 47.1733C7.33382 47.2357 7.51054 47.2045 7.6093 47.1733C7.80161 47.927 8.07708 48.6598 8.42012 49.3563C8.15504 49.0081 7.79121 48.5663 7.33382 48.1817C6.87124 47.7919 6.49701 47.6463 6.23193 47.6203C5.96686 47.5943 5.81093 47.6775 5.81093 47.6775C5.81093 47.6775 5.89929 48.0361 6.13838 48.4883C6.37227 48.9405 6.76729 49.4915 7.29224 49.8397C7.70805 50.1204 8.04589 50.1827 8.29538 50.1775C8.54486 50.1672 8.70599 50.0892 8.79435 50.032C9.18936 50.7025 9.65715 51.3314 10.1873 51.8979C9.83386 51.6381 9.36088 51.3158 8.81514 51.0767C8.25899 50.8324 7.86398 50.7961 7.5989 50.848C7.33382 50.8948 7.21428 51.0196 7.21428 51.0196C7.21428 51.0196 7.40139 51.3366 7.75483 51.7056C8.10826 52.0747 8.63842 52.4905 9.24134 52.6776C9.71952 52.8283 10.0574 52.7971 10.2965 52.7244C10.5303 52.6464 10.6707 52.5217 10.733 52.4437C11.2996 52.979 11.9233 53.452 12.5886 53.8522C12.1728 53.7015 11.6322 53.5196 11.0397 53.4416C10.4368 53.3585 10.047 53.4364 9.80788 53.5612C9.56879 53.6807 9.48563 53.8367 9.48563 53.8367C9.48563 53.8367 9.7507 54.0861 10.1925 54.346C10.6343 54.6059 11.258 54.8554 11.8921 54.871C12.3911 54.8814 12.7133 54.7566 12.916 54.6215C13.1239 54.4811 13.2175 54.3252 13.2591 54.2317C13.9504 54.5851 14.6832 54.8658 15.4369 55.0633C14.9951 55.0321 14.4285 55.0165 13.836 55.1049C13.2331 55.1984 12.8849 55.3803 12.6873 55.5622C12.4898 55.7442 12.4535 55.9157 12.4535 55.9157C12.4535 55.9157 12.7809 56.082 13.2799 56.2068C13.7736 56.3315 14.4441 56.3991 15.0574 56.2327C15.5408 56.1028 15.8111 55.8949 15.9722 55.7026C16.1281 55.5103 16.1749 55.3336 16.1905 55.2296C16.7986 55.3439 17.4171 55.4115 18.0409 55.4219C18.1552 55.4219 18.2488 55.3595 18.2488 55.2816C18.2488 55.2036 18.1604 55.136 18.0461 55.136C17.4431 55.1257 16.8402 55.0633 16.2477 54.9489C16.2685 54.8502 16.2893 54.6683 16.2269 54.4292C16.1697 54.1953 16.0294 53.9042 15.7747 53.582C15.4473 53.1662 15.073 52.8647 14.782 52.6516C14.4909 52.4385 14.2726 52.3242 14.2726 52.3242C14.2726 52.3242 14.1635 52.4593 14.1115 52.714C14.0647 52.9687 14.0699 53.3481 14.3714 53.8159C14.6676 54.2732 15.1198 54.5903 15.5044 54.7774C14.7768 54.5851 14.0699 54.3148 13.3942 53.9718C13.4462 53.8834 13.5138 53.7119 13.5242 53.4676C13.5345 53.2233 13.4826 52.9115 13.3266 52.5269C13.1291 52.0331 12.8537 51.6433 12.6302 51.3574C12.4067 51.0715 12.23 50.9 12.23 50.9C12.23 50.9 12.0896 50.9988 11.9701 51.2327C11.8557 51.4613 11.757 51.8304 11.9129 52.3605C12.0688 52.8803 12.4119 53.3169 12.7289 53.6028C12.0844 53.2129 11.4815 52.7555 10.9306 52.241C11.0033 52.1682 11.1177 52.0227 11.1904 51.794C11.2684 51.5653 11.3048 51.2482 11.2632 50.8324C11.206 50.3075 11.0553 49.8501 10.9202 49.5123C10.785 49.1744 10.6655 48.9613 10.6655 48.9613C10.6655 48.9613 10.4992 49.0185 10.3224 49.2056C10.1457 49.3927 9.94821 49.715 9.95341 50.2711C9.95861 50.8117 10.1717 51.3262 10.3952 51.69C9.88584 51.1391 9.43365 50.5258 9.04903 49.8813C9.13739 49.8345 9.28812 49.7254 9.42325 49.5226C9.56359 49.3251 9.68833 49.0289 9.7611 48.6235C9.85466 48.1037 9.83386 47.6255 9.80268 47.2669C9.7663 46.9083 9.70912 46.6692 9.70912 46.6692C9.70912 46.6692 9.5376 46.6796 9.31411 46.8095C9.09061 46.9394 8.80994 47.1941 8.65921 47.7295C8.50848 48.2544 8.57085 48.8054 8.6852 49.216C8.34735 48.5403 8.08228 47.8334 7.89516 47.1006C7.99392 47.0798 8.17064 47.0174 8.35775 46.8667C8.54486 46.716 8.74757 46.4665 8.93468 46.0974C9.16857 45.6245 9.28812 45.1567 9.35569 44.8032C9.42325 44.4498 9.43885 44.2003 9.43365 44.2003C9.43365 44.2003 9.26213 44.1587 9.01265 44.2263C8.76316 44.2887 8.42532 44.4602 8.12386 44.928C7.83279 45.3854 7.73924 45.9363 7.73404 46.3573C7.5989 45.6141 7.54692 44.8604 7.57291 44.1068C7.67686 44.112 7.85878 44.1016 8.08228 44.008C8.30577 43.9144 8.57085 43.7325 8.85152 43.4259C9.21015 43.0361 9.44924 42.6202 9.61557 42.298C9.77669 41.9757 9.85985 41.7419 9.85985 41.7419C9.85985 41.7419 9.70912 41.6587 9.44924 41.6483C9.18936 41.6431 8.82033 41.7055 8.40453 42.0745C7.99911 42.4383 7.75483 42.9373 7.63009 43.3427C7.70805 42.5943 7.86398 41.851 8.09787 41.1337C8.19143 41.1701 8.37334 41.2117 8.61243 41.1805C8.84632 41.1285 9.14778 41.0298 9.50122 40.8167Z" fill="#F59B19"/>
<path d="M27.9058 40.8167C27.4536 40.5412 27.1054 40.2138 26.8559 39.9487C26.6064 39.6836 26.4661 39.4861 26.4661 39.4809C26.4661 39.4809 26.5856 39.3562 26.8351 39.273C27.0794 39.195 27.4588 39.1535 27.9578 39.3873C28.4516 39.6212 28.8258 40.0318 29.0597 40.3853C28.7738 39.6888 28.4152 39.0183 27.989 38.3998C27.9058 38.4622 27.7447 38.5505 27.5056 38.5921C27.2665 38.6337 26.9495 38.6233 26.5493 38.5142C26.0347 38.379 25.6085 38.1555 25.2966 37.9736C24.9848 37.7917 24.7925 37.6358 24.7925 37.6358C24.7925 37.6358 24.8756 37.4798 25.0887 37.3343C25.3018 37.1888 25.6501 37.0432 26.201 37.1316C26.7364 37.22 27.2094 37.511 27.5368 37.7865C27.2094 37.3759 26.8559 36.9913 26.4765 36.6326C26.4765 36.6326 25.6813 36.6014 24.5742 35.9258C23.5399 35.3332 23.0097 34.3041 23.0097 34.3041C23.0097 34.3041 23.9453 34.0234 25.2758 34.7927C26.2634 35.4268 26.6012 36.2376 26.674 36.4247C27.069 36.7937 27.438 37.194 27.7707 37.6202C27.568 37.2303 27.3237 36.7106 27.1678 36.1389C27.0118 35.5515 27.043 35.1565 27.1314 34.9018C27.2197 34.6471 27.3653 34.5484 27.3653 34.5484C27.3653 34.5484 27.646 34.7771 27.9578 35.1877C28.2697 35.5931 28.5971 36.1804 28.6907 36.8093C28.7634 37.3031 28.6855 37.6358 28.5711 37.8593C28.4568 38.0828 28.3164 38.1919 28.2281 38.2491C28.6647 38.8884 29.0389 39.5797 29.33 40.3021C29.2416 39.8707 29.1532 39.3042 29.1636 38.7065C29.174 38.0983 29.3144 37.7293 29.4703 37.511C29.6262 37.2927 29.7926 37.2355 29.7926 37.2355C29.7926 37.2355 30.0005 37.537 30.1876 38.0152C30.3747 38.4934 30.5254 39.1431 30.4423 39.7772C30.3747 40.2709 30.2032 40.5724 30.0316 40.7543C29.8601 40.9362 29.6938 41.0038 29.595 41.0298C29.8341 41.7678 30.0005 42.5371 30.0784 43.3115C30.1148 42.8749 30.1876 42.3084 30.3695 41.7367C30.5514 41.1597 30.7905 40.8375 30.9984 40.6763C31.2063 40.51 31.383 40.4996 31.383 40.5048C31.383 40.5048 31.4974 40.8531 31.5441 41.3624C31.5909 41.8718 31.5493 42.5423 31.2947 43.1244C31.092 43.5818 30.8425 43.8157 30.6294 43.9456C30.4163 44.0704 30.2292 44.0912 30.1304 44.0912C30.1564 44.8656 30.0992 45.6504 29.9589 46.4145C30.1148 46.0039 30.3435 45.4789 30.6761 44.98C31.014 44.4758 31.331 44.2367 31.5753 44.1379C31.8196 44.0392 31.9963 44.0808 31.9963 44.0808C31.9963 44.0808 32.0119 44.4446 31.908 44.9488C31.8092 45.4477 31.5857 46.0818 31.1803 46.5704C30.8581 46.955 30.5566 47.111 30.3123 47.1733C30.0732 47.2357 29.8913 47.2045 29.7926 47.1733C29.6002 47.927 29.3248 48.6598 28.9765 49.3563C29.2468 49.0081 29.6054 48.5663 30.0628 48.1817C30.5254 47.7919 30.8996 47.6463 31.1647 47.6203C31.4298 47.5943 31.5857 47.6775 31.5857 47.6775C31.5857 47.6775 31.4974 48.0361 31.2583 48.4883C31.0244 48.9405 30.6294 49.4915 30.1044 49.8397C29.6886 50.1204 29.3508 50.1827 29.1013 50.1775C28.8518 50.1672 28.6907 50.0892 28.6023 50.032C28.2073 50.7025 27.7395 51.3314 27.2094 51.8979C27.5628 51.6381 28.0358 51.3158 28.5815 51.0767C29.1377 50.8324 29.5327 50.7961 29.7978 50.848C30.0576 50.8948 30.1824 51.0196 30.1824 51.0196C30.1824 51.0196 29.9953 51.3366 29.6418 51.7056C29.2884 52.0747 28.7582 52.4905 28.1553 52.6776C27.6771 52.8283 27.3393 52.7971 27.1002 52.7244C26.8663 52.6464 26.7312 52.5217 26.6636 52.4437C26.0971 52.979 25.4734 53.452 24.8081 53.8522C25.2187 53.7015 25.7644 53.5196 26.3569 53.4416C26.9599 53.3585 27.3497 53.4364 27.5888 53.5612C27.8279 53.6807 27.911 53.8367 27.911 53.8367C27.911 53.8367 27.646 54.0861 27.2042 54.346C26.7624 54.6059 26.1386 54.8554 25.5045 54.871C25.0056 54.8814 24.6833 54.7566 24.4806 54.6215C24.2727 54.4811 24.1792 54.3252 24.1376 54.2317C23.4463 54.5851 22.7134 54.8658 21.9598 55.0633C22.4016 55.0321 22.9681 55.0165 23.5606 55.1049C24.1584 55.1984 24.5118 55.3803 24.7093 55.5622C24.9068 55.7442 24.9432 55.9157 24.9432 55.9157C24.9432 55.9157 24.6158 56.082 24.1168 56.2068C23.623 56.3315 22.9525 56.3991 22.3392 56.2327C21.8558 56.1028 21.5856 55.8949 21.4244 55.7026C21.2633 55.5103 21.2217 55.3336 21.2061 55.2296C20.598 55.3439 19.9795 55.4115 19.3558 55.4219C19.2414 55.4219 19.1479 55.3595 19.1479 55.2816C19.1479 55.2036 19.2362 55.136 19.3506 55.136C19.9535 55.1257 20.5564 55.0633 21.149 54.9489C21.1282 54.8502 21.1074 54.6683 21.1698 54.4292C21.2269 54.1953 21.3621 53.9042 21.6219 53.582C21.9494 53.1662 22.3236 52.8647 22.6147 52.6516C22.9057 52.4385 23.124 52.3242 23.124 52.3242C23.124 52.3242 23.2332 52.4593 23.28 52.714C23.3268 52.9687 23.3216 53.3481 23.0253 53.8159C22.7342 54.2732 22.2768 54.5903 21.8922 54.7774C22.6199 54.5851 23.3268 54.3148 23.9972 53.9718C23.9505 53.8834 23.8777 53.7119 23.8725 53.4676C23.8621 53.2233 23.9141 52.9115 24.07 52.5269C24.2675 52.0331 24.543 51.6433 24.7665 51.3574C24.99 51.0715 25.1667 50.9 25.1667 50.9C25.1667 50.9 25.307 50.9988 25.4266 51.2327C25.5461 51.4613 25.6449 51.8304 25.4889 52.3605C25.333 52.8803 24.9848 53.3169 24.6729 53.6028C25.3174 53.2129 25.9203 52.7555 26.4713 52.241C26.3985 52.1682 26.2842 52.0227 26.2114 51.794C26.1334 51.5653 26.0971 51.2482 26.1386 50.8324C26.1958 50.3075 26.3466 49.8501 26.4817 49.5123C26.6168 49.1744 26.7364 48.9613 26.7364 48.9613C26.7364 48.9613 26.9027 49.0185 27.0794 49.2056C27.2561 49.3927 27.4536 49.715 27.4484 50.2711C27.4432 50.8117 27.2301 51.3262 27.0066 51.69C27.516 51.1391 27.9682 50.5258 28.3528 49.8813C28.2645 49.8345 28.1137 49.7254 27.9786 49.5226C27.8383 49.3251 27.7135 49.0289 27.6408 48.6235C27.5472 48.1037 27.568 47.6255 27.5992 47.2669C27.6356 46.9083 27.6875 46.6692 27.6927 46.6692C27.6927 46.6692 27.8642 46.6796 28.0929 46.8095C28.3164 46.9394 28.5919 47.1941 28.7478 47.7295C28.8986 48.2544 28.8362 48.8054 28.7218 49.216C29.0597 48.5403 29.3196 47.8334 29.5067 47.1006C29.4079 47.0798 29.2312 47.0174 29.0441 46.8667C28.857 46.716 28.6543 46.4665 28.4672 46.0974C28.2333 45.6245 28.1137 45.1567 28.0462 44.8032C27.9786 44.4498 27.963 44.2003 27.9682 44.2003C27.9682 44.2003 28.1397 44.1587 28.3892 44.2263C28.6387 44.2887 28.9765 44.4602 29.2728 44.928C29.5639 45.3854 29.6574 45.9363 29.6626 46.3573C29.7978 45.6141 29.8497 44.8604 29.8237 44.1068C29.7198 44.112 29.5379 44.1016 29.3144 44.008C29.0909 43.9144 28.831 43.7325 28.5451 43.4259C28.1865 43.0361 27.9474 42.6202 27.7863 42.298C27.6252 41.9757 27.542 41.7419 27.542 41.7419C27.542 41.7419 27.6927 41.6587 27.9526 41.6483C28.2125 41.6431 28.5815 41.7055 28.9973 42.0745C29.4027 42.4383 29.647 42.9373 29.7718 43.3427C29.6938 42.5943 29.5379 41.851 29.304 41.1337C29.2052 41.1701 29.0285 41.2117 28.7894 41.1805C28.5607 41.1285 28.2593 41.0298 27.9058 40.8167Z" fill="#F59B19"/>
</svg>
