<svg width="24" height="24" viewBox="0 0 24 24" fill="none" xmlns="http://www.w3.org/2000/svg">
<path d="M24 11.9983C24 18.6244 18.6278 23.9967 12.0017 23.9967C5.37224 24 0 18.6278 0 11.9983C0 5.37224 5.37224 0 11.9983 0C18.6278 0 24 5.37224 24 11.9983Z" fill="#CCCCCC"/>
<path d="M11.9984 22.1059C6.42605 22.1059 1.89417 17.574 1.89417 12.0017C1.89417 6.42935 6.42605 1.89746 11.9984 1.89746C17.5707 1.89746 22.1026 6.42935 22.1026 12.0017C22.1026 17.574 17.5707 22.1059 11.9984 22.1059ZM11.9984 2.52772C6.7762 2.52772 2.52443 6.77616 2.52443 12.0017C2.52443 17.2272 6.77287 21.4756 11.9984 21.4756C17.2239 21.4756 21.4723 17.2272 21.4723 12.0017C21.4723 6.77616 17.2239 2.52772 11.9984 2.52772Z" fill="#A0A0A0"/>
<path d="M6.09582 9.76418C6.38594 9.58744 6.60936 9.37735 6.76943 9.20728C6.92949 9.03721 7.01953 8.91049 7.01953 8.90715C7.01953 8.90715 6.94283 8.82712 6.78277 8.77376C6.62604 8.72374 6.38594 8.69706 6.06247 8.84713C5.74567 8.99719 5.50557 9.26063 5.35884 9.4874C5.54225 9.04054 5.77235 8.61036 6.04579 8.21353C6.09915 8.25354 6.20253 8.31024 6.35592 8.33691C6.50932 8.36359 6.71274 8.35692 6.96951 8.28689C7.29631 8.20019 7.5731 8.0568 7.76984 7.94008C7.96993 7.82336 8.09331 7.72332 8.09331 7.72332C8.09331 7.72332 8.03996 7.62328 7.90323 7.52991C7.76651 7.43654 7.54308 7.34316 7.1896 7.39985C6.84613 7.45654 6.54267 7.64329 6.33258 7.82003C6.54267 7.55659 6.76943 7.30982 7.01286 7.07972C7.01286 7.07972 7.52307 7.05971 8.23337 6.6262C8.89698 6.24604 9.23712 5.58576 9.23712 5.58576C9.23712 5.58576 8.63353 5.40568 7.78318 5.89922C7.14959 6.30606 6.93283 6.82628 6.88614 6.94633C6.6327 7.1831 6.39594 7.43987 6.18252 7.71332C6.31257 7.46321 6.4693 7.12974 6.56935 6.76292C6.66939 6.3861 6.65271 6.13266 6.59269 5.96925C6.536 5.80585 6.44263 5.74249 6.44263 5.74249C6.44263 5.74249 6.26255 5.88922 6.06247 6.15266C5.86239 6.41277 5.6523 6.7896 5.59227 7.1931C5.54559 7.5099 5.59561 7.72332 5.66897 7.86672C5.74234 8.01011 5.83237 8.08014 5.88906 8.11682C5.60561 8.52699 5.36885 8.97051 5.1821 9.43404C5.23879 9.15726 5.29548 8.79377 5.28881 8.41028C5.27881 8.02011 5.19211 7.78335 5.09207 7.64329C4.99202 7.50323 4.88531 7.46655 4.88531 7.46655C4.88531 7.46655 4.75192 7.65996 4.63187 7.96676C4.51182 8.27355 4.41512 8.69039 4.46847 9.09723C4.51182 9.41403 4.62187 9.60745 4.73192 9.72416C4.84196 9.84088 4.95201 9.88423 5.01203 9.9009C4.85864 10.3744 4.75526 10.868 4.7019 11.3648C4.67856 11.0847 4.63187 10.7212 4.51516 10.3544C4.39844 9.98427 4.24505 9.77752 4.11166 9.67414C3.97827 9.56743 3.86489 9.56076 3.86489 9.56409C3.86489 9.56409 3.79153 9.78752 3.76151 10.1143C3.7315 10.4411 3.75818 10.8713 3.92158 11.2448C4.05163 11.5383 4.2117 11.6883 4.34842 11.7717C4.48515 11.8517 4.6052 11.8651 4.66856 11.8651C4.65188 12.3619 4.68857 12.8655 4.7786 13.3557C4.67523 13.0922 4.53183 12.7554 4.31841 12.4353C4.10165 12.1118 3.89824 11.9584 3.74151 11.8951C3.58144 11.8317 3.47139 11.8584 3.47139 11.8584C3.47139 11.8584 3.46472 12.0918 3.52808 12.4153C3.59144 12.7354 3.73484 13.1423 3.99494 13.4557C4.2017 13.7025 4.39511 13.8025 4.54851 13.8426C4.70524 13.8826 4.81862 13.8626 4.88198 13.8426C5.00536 14.3261 5.1821 14.7963 5.40219 15.2431C5.23212 15.0197 4.99869 14.7363 4.70524 14.4895C4.40845 14.2394 4.16835 14.146 3.99828 14.1293C3.82821 14.1127 3.72817 14.166 3.72817 14.166C3.72817 14.166 3.78486 14.3961 3.93825 14.6862C4.08832 14.9764 4.34175 15.3298 4.67856 15.5533C4.94534 15.7333 5.16209 15.7734 5.32216 15.77C5.48223 15.7634 5.5856 15.7133 5.64229 15.6767C5.89573 16.1068 6.19586 16.5103 6.536 16.8738C6.30924 16.7071 6.00578 16.5003 5.65563 16.3469C5.29882 16.1902 5.04538 16.1669 4.87531 16.2002C4.70524 16.2302 4.62854 16.3103 4.62854 16.3103C4.62854 16.3103 4.74859 16.5137 4.97535 16.7504C5.20211 16.9872 5.54225 17.254 5.92908 17.374C6.23587 17.4707 6.45263 17.4507 6.60603 17.404C6.75609 17.354 6.84613 17.274 6.88614 17.224C7.24963 17.5674 7.64979 17.8709 8.07664 18.1277C7.80986 18.031 7.46305 17.9143 7.08289 17.8642C6.69606 17.8109 6.44596 17.8609 6.29256 17.9409C6.13917 18.0176 6.08581 18.1177 6.08581 18.1177C6.08581 18.1177 6.25588 18.2777 6.53933 18.4445C6.82278 18.6112 7.22295 18.7713 7.62979 18.7813C7.94992 18.788 8.15667 18.7079 8.28672 18.6212C8.42011 18.5312 8.48014 18.4311 8.50682 18.3711C8.95033 18.5979 9.42053 18.778 9.90406 18.9047C9.62061 18.8847 9.25713 18.8747 8.87697 18.9314C8.49014 18.9914 8.26672 19.1081 8.14 19.2248C8.01328 19.3415 7.98993 19.4516 7.98993 19.4516C7.98993 19.4516 8.20002 19.5583 8.52015 19.6383C8.83695 19.7183 9.26713 19.7617 9.66063 19.655C9.97076 19.5716 10.1442 19.4382 10.2475 19.3148C10.3476 19.1915 10.3776 19.0781 10.3876 19.0114C10.7778 19.0847 11.1746 19.1281 11.5748 19.1348C11.6481 19.1348 11.7081 19.0948 11.7081 19.0447C11.7081 18.9947 11.6515 18.9514 11.5781 18.9514C11.1913 18.9447 10.8044 18.9047 10.4243 18.8313C10.4376 18.7679 10.451 18.6512 10.4109 18.4978C10.3743 18.3478 10.2842 18.161 10.1208 17.9543C9.91073 17.6875 9.67063 17.4941 9.48389 17.3574C9.29714 17.2206 9.15709 17.1473 9.15709 17.1473C9.15709 17.1473 9.08706 17.234 9.05371 17.3974C9.0237 17.5608 9.02703 17.8042 9.22045 18.1043C9.41052 18.3978 9.70064 18.6012 9.94741 18.7213C9.48055 18.5979 9.02703 18.4245 8.59352 18.2044C8.62687 18.1477 8.67022 18.0376 8.67689 17.8809C8.68356 17.7242 8.65021 17.5241 8.55017 17.2773C8.42345 16.9605 8.24671 16.7104 8.10332 16.527C7.95992 16.3436 7.84654 16.2336 7.84654 16.2336C7.84654 16.2336 7.7565 16.2969 7.67981 16.447C7.60644 16.5937 7.54308 16.8305 7.64312 17.1706C7.74317 17.5041 7.96326 17.7842 8.16667 17.9676C7.75317 17.7175 7.36634 17.4241 7.01286 17.0939C7.05955 17.0472 7.13291 16.9539 7.1796 16.8071C7.22962 16.6604 7.25296 16.457 7.22628 16.1902C7.1896 15.8534 7.0929 15.5599 7.00619 15.3432C6.91949 15.1264 6.84279 14.9897 6.84279 14.9897C6.84279 14.9897 6.73608 15.0264 6.6227 15.1464C6.50932 15.2665 6.3826 15.4732 6.38594 15.8301C6.38927 16.1769 6.52599 16.507 6.66939 16.7404C6.34258 16.387 6.05246 15.9935 5.8057 15.5799C5.86239 15.5499 5.95909 15.4799 6.04579 15.3498C6.13583 15.2231 6.21587 15.0331 6.26255 14.7729C6.32258 14.4395 6.30924 14.1327 6.28923 13.9026C6.26589 13.6725 6.2292 13.5191 6.2292 13.5191C6.2292 13.5191 6.11916 13.5258 5.97577 13.6091C5.83237 13.6925 5.6523 13.8559 5.55559 14.1994C5.45888 14.5362 5.4989 14.8897 5.57227 15.1531C5.35551 14.7196 5.18544 14.2661 5.06539 13.7959C5.12875 13.7825 5.24213 13.7425 5.36218 13.6458C5.48223 13.5491 5.61228 13.389 5.73233 13.1523C5.88239 12.8488 5.95909 12.5487 6.00244 12.3219C6.04579 12.0952 6.0558 11.9351 6.05246 11.9351C6.05246 11.9351 5.94242 11.9084 5.78235 11.9518C5.62229 11.9918 5.40553 12.1018 5.21212 12.4019C5.02537 12.6954 4.96535 13.0489 4.96201 13.319C4.87531 12.8421 4.84196 12.3586 4.85864 11.8751C4.92533 11.8784 5.04204 11.8717 5.18544 11.8117C5.32883 11.7517 5.4989 11.635 5.67898 11.4382C5.90907 11.1881 6.06247 10.9213 6.16918 10.7146C6.27256 10.5078 6.32591 10.3578 6.32591 10.3578C6.32591 10.3578 6.2292 10.3044 6.06247 10.2977C5.89573 10.2944 5.65897 10.3344 5.39219 10.5712C5.13208 10.8046 4.97535 11.1247 4.89532 11.3849C4.94534 10.9047 5.04538 10.4278 5.19544 9.9676C5.25547 9.99094 5.37218 10.0176 5.52558 9.99761C5.67564 9.9676 5.86905 9.90424 6.09582 9.76418Z" fill="#A0A0A0"/>
<path d="M17.9041 9.76418C17.614 9.58744 17.3905 9.37735 17.2305 9.20728C17.0704 9.03721 16.9804 8.91049 16.9804 8.90715C16.9804 8.90715 17.0571 8.82712 17.2171 8.77376C17.3739 8.72374 17.6173 8.69706 17.9374 8.84713C18.2542 8.99719 18.4943 9.26063 18.6411 9.4874C18.4576 9.04054 18.2276 8.61036 17.9541 8.21353C17.9007 8.25354 17.7974 8.31024 17.644 8.33691C17.4906 8.36359 17.2872 8.35692 17.0304 8.28689C16.7002 8.20019 16.4268 8.0568 16.2267 7.94008C16.0266 7.82336 15.9032 7.72332 15.9032 7.72332C15.9032 7.72332 15.9566 7.62328 16.0933 7.52991C16.2301 7.43654 16.4535 7.34316 16.807 7.39985C17.1504 7.45654 17.4539 7.64329 17.664 7.82003C17.4539 7.55659 17.2271 7.30982 16.9837 7.07972C16.9837 7.07972 16.4735 7.05971 15.7632 6.6262C15.0996 6.24604 14.7594 5.58576 14.7594 5.58576C14.7594 5.58576 15.3597 5.40568 16.2134 5.89922C16.847 6.30606 17.0637 6.82628 17.1104 6.94633C17.3639 7.1831 17.6006 7.43987 17.814 7.71332C17.684 7.46321 17.5273 7.12974 17.4272 6.76292C17.3272 6.3861 17.3472 6.13266 17.4039 5.96925C17.4606 5.80585 17.5539 5.74249 17.5539 5.74249C17.5539 5.74249 17.734 5.88922 17.9341 6.15266C18.1342 6.41277 18.3443 6.7896 18.4043 7.1931C18.451 7.5099 18.401 7.72332 18.3276 7.86672C18.2542 8.01011 18.1642 8.08014 18.1075 8.11682C18.3876 8.52699 18.6277 8.97051 18.8145 9.43404C18.7578 9.15726 18.7011 8.79377 18.7077 8.41028C18.7144 8.02011 18.8045 7.78335 18.9045 7.64329C19.0045 7.50323 19.1113 7.46655 19.1113 7.46655C19.1113 7.46655 19.2446 7.65996 19.3647 7.96676C19.4847 8.27355 19.5814 8.69039 19.5281 9.09723C19.4847 9.41403 19.3747 9.60745 19.2646 9.72416C19.1546 9.84088 19.0479 9.88423 18.9845 9.9009C19.1379 10.3744 19.2446 10.868 19.2947 11.3648C19.318 11.0847 19.3647 10.7212 19.4814 10.3544C19.5981 9.98427 19.7515 9.77752 19.8849 9.67414C20.0183 9.56743 20.1317 9.56076 20.1317 9.56409C20.1317 9.56409 20.205 9.78752 20.2351 10.1143C20.2651 10.4411 20.2384 10.8713 20.075 11.2448C19.9449 11.5383 19.7849 11.6883 19.6481 11.7717C19.5114 11.8517 19.3914 11.8651 19.328 11.8651C19.3447 12.3619 19.308 12.8655 19.218 13.3557C19.3213 13.0922 19.4647 12.7554 19.6782 12.4353C19.8949 12.1118 20.0983 11.9584 20.2551 11.8951C20.4118 11.8317 20.5252 11.8584 20.5252 11.8584C20.5252 11.8584 20.5318 12.0918 20.4685 12.4153C20.4051 12.7354 20.2617 13.1423 20.0016 13.4557C19.7982 13.7025 19.6015 13.8025 19.4447 13.8426C19.2913 13.8826 19.1746 13.8626 19.1113 13.8426C18.9879 14.3261 18.8111 14.7963 18.5877 15.2431C18.7611 15.0197 18.9912 14.7363 19.2847 14.4895C19.5814 14.2394 19.8215 14.146 19.9916 14.1293C20.1617 14.1127 20.2617 14.166 20.2617 14.166C20.2617 14.166 20.205 14.3961 20.0516 14.6862C19.9016 14.9764 19.6481 15.3298 19.3113 15.5533C19.0446 15.7333 18.8278 15.7734 18.6677 15.77C18.5077 15.7634 18.4043 15.7133 18.3476 15.6767C18.0942 16.1068 17.794 16.5103 17.4539 16.8738C17.6807 16.7071 17.9841 16.5003 18.3343 16.3469C18.6911 16.1902 18.9445 16.1669 19.1146 16.2002C19.2813 16.2302 19.3614 16.3103 19.3614 16.3103C19.3614 16.3103 19.2413 16.5137 19.0145 16.7504C18.7878 16.9872 18.4476 17.254 18.0608 17.374C17.754 17.4707 17.5373 17.4507 17.3839 17.404C17.2338 17.354 17.1471 17.274 17.1037 17.224C16.7403 17.5674 16.3401 17.8709 15.9133 18.1277C16.1767 18.031 16.5268 17.9143 16.907 17.8642C17.2938 17.8109 17.5439 17.8609 17.6973 17.9409C17.8507 18.0176 17.9041 18.1177 17.9041 18.1177C17.9041 18.1177 17.734 18.2777 17.4506 18.4445C17.1671 18.6112 16.7669 18.7713 16.3601 18.7813C16.04 18.788 15.8332 18.7079 15.7032 18.6212C15.5698 18.5312 15.5098 18.4311 15.4831 18.3711C15.0396 18.5979 14.5694 18.778 14.0858 18.9047C14.3693 18.8847 14.7328 18.8747 15.1129 18.9314C15.4964 18.9914 15.7232 19.1081 15.8499 19.2248C15.9766 19.3415 16 19.4516 16 19.4516C16 19.4516 15.7899 19.5583 15.4697 19.6383C15.1529 19.7183 14.7228 19.7617 14.3293 19.655C14.0191 19.5716 13.8457 19.4382 13.7423 19.3148C13.639 19.1915 13.6123 19.0781 13.6023 19.0114C13.2121 19.0847 12.8153 19.1281 12.4151 19.1348C12.3418 19.1348 12.2817 19.0948 12.2817 19.0447C12.2817 18.9947 12.3384 18.9514 12.4118 18.9514C12.7986 18.9447 13.1854 18.9047 13.5656 18.8313C13.5523 18.7679 13.5389 18.6512 13.5789 18.4978C13.6156 18.3478 13.7023 18.161 13.8691 17.9543C14.0792 17.6875 14.3193 17.4941 14.506 17.3574C14.6927 17.2206 14.8328 17.1473 14.8328 17.1473C14.8328 17.1473 14.9028 17.234 14.9328 17.3974C14.9629 17.5608 14.9595 17.8042 14.7694 18.1043C14.5827 18.3978 14.2892 18.6012 14.0425 18.7213C14.5093 18.5979 14.9629 18.4245 15.393 18.2044C15.363 18.1477 15.3163 18.0376 15.313 17.8809C15.3063 17.7242 15.3397 17.5241 15.4397 17.2773C15.5664 16.9605 15.7432 16.7104 15.8866 16.527C16.03 16.3436 16.1433 16.2336 16.1433 16.2336C16.1433 16.2336 16.2334 16.2969 16.3101 16.447C16.3868 16.5937 16.4501 16.8305 16.3501 17.1706C16.2501 17.5041 16.0266 17.7842 15.8265 17.9676C16.2401 17.7175 16.6269 17.4241 16.9804 17.0939C16.9337 17.0472 16.8603 16.9539 16.8136 16.8071C16.7636 16.6604 16.7403 16.457 16.7669 16.1902C16.8036 15.8534 16.9003 15.5599 16.987 15.3432C17.0737 15.1264 17.1504 14.9897 17.1504 14.9897C17.1504 14.9897 17.2571 15.0264 17.3705 15.1464C17.4839 15.2665 17.6106 15.4732 17.6073 15.8301C17.604 16.1769 17.4672 16.507 17.3238 16.7404C17.6506 16.387 17.9408 15.9935 18.1875 15.5799C18.1308 15.5499 18.0341 15.4799 17.9474 15.3498C17.8574 15.2231 17.7774 15.0331 17.7307 14.7729C17.6707 14.4395 17.684 14.1327 17.704 13.9026C17.7273 13.6725 17.7607 13.5191 17.764 13.5191C17.764 13.5191 17.8741 13.5258 18.0208 13.6091C18.1642 13.6925 18.3409 13.8559 18.441 14.1994C18.5377 14.5362 18.4977 14.8897 18.4243 15.1531C18.6411 14.7196 18.8078 14.2661 18.9278 13.7959C18.8645 13.7825 18.7511 13.7425 18.6311 13.6458C18.511 13.5491 18.3809 13.389 18.2609 13.1523C18.1108 12.8488 18.0341 12.5487 17.9908 12.3219C17.9474 12.0952 17.9374 11.9351 17.9408 11.9351C17.9408 11.9351 18.0508 11.9084 18.2109 11.9518C18.3709 11.9918 18.5877 12.1018 18.7778 12.4019C18.9645 12.6954 19.0245 13.0489 19.0279 13.319C19.1146 12.8421 19.1479 12.3586 19.1313 11.8751C19.0646 11.8784 18.9479 11.8717 18.8045 11.8117C18.6611 11.7517 18.4943 11.635 18.3109 11.4382C18.0808 11.1881 17.9274 10.9213 17.824 10.7146C17.7207 10.5078 17.6673 10.3578 17.6673 10.3578C17.6673 10.3578 17.764 10.3044 17.9308 10.2977C18.0975 10.2944 18.3343 10.3344 18.601 10.5712C18.8611 10.8046 19.0179 11.1247 19.0979 11.3849C19.0479 10.9047 18.9479 10.4278 18.7978 9.9676C18.7344 9.99094 18.621 10.0176 18.4676 9.99761C18.3243 9.9676 18.1308 9.90424 17.9041 9.76418Z" fill="#A0A0A0"/>
</svg>
