<svg width="24" height="24" fill="none" xmlns="http://www.w3.org/2000/svg"><path d="M12 24c6.627 0 12-5.373 12-12S18.627 0 12 0 0 5.373 0 12s5.373 12 12 12z" fill="#FAA069"/><path d="M12 22.1C6.4 22.1 1.9 17.6 1.9 12S6.4 1.9 12 1.9 22.1 6.4 22.1 12 17.6 22.1 12 22.1zm0-19.6c-5.2 0-9.5 4.2-9.5 9.5s4.3 9.5 9.5 9.5 9.5-4.2 9.5-9.5-4.3-9.5-9.5-9.5z" fill="#DC7D50"/><path d="M6.1 9.8c.3-.2.5-.4.7-.6.1-.2.2-.3.2-.3s-.1-.1-.2-.1c-.2-.1-.4-.1-.7.1-.4.1-.6.4-.7.6.1-.5.4-.9.6-1.3.1 0 .2.1.3.1h.6c.3-.1.6-.2.8-.3.3-.2.4-.3.4-.3l-.2-.2c-.1-.1-.4-.2-.7-.1-.4.1-.7.2-.9.4l.7-.7s.5 0 1.2-.5c.7-.4 1-1 1-1s-.6-.2-1.5.3c-.6.4-.9.9-.9 1-.2.3-.4.5-.6.8.1-.3.3-.6.4-1 .1-.4.1-.6 0-.8l-.2-.2s-.2.1-.4.4c-.2.3-.4.6-.5 1 0 .3 0 .5.1.7.1.2.2.3.3.3-.3.4-.5.9-.7 1.3.1-.3.1-.6.1-1s-.1-.6-.2-.8c-.1-.1-.2-.1-.2-.1s-.1.2-.3.5c-.1.3-.2.7-.1 1.1 0 .3.2.5.3.6 0 .1.2.2.2.2-.2.5-.3 1-.3 1.5 0-.3-.1-.6-.2-1s-.3-.6-.4-.7c-.1-.1-.2-.1-.2-.1s-.1.2-.1.6c0 .3 0 .8.2 1.1.1.3.3.4.4.5.1.1.3.1.3.1 0 .5 0 1 .1 1.5-.1-.3-.2-.6-.5-.9-.2-.3-.4-.5-.6-.5-.2-.1-.3 0-.3 0s0 .2.1.6c.1.3.2.7.5 1 .2.2.4.3.6.4h.3c.1.5.3 1 .5 1.4-.2-.4-.4-.7-.7-.9-.3-.3-.5-.3-.7-.4h-.3s.1.2.2.5.4.6.7.9c.3.2.5.2.6.2.2 0 .3-.1.3-.1l.9 1.2c-.2-.2-.5-.4-.9-.5-.4-.2-.6-.2-.8-.1-.2 0-.2.1-.2.1s.1.2.3.4c.2.2.6.5 1 .6.3.1.5.1.7 0 .2 0 .2-.1.3-.2L8 18c-.3-.1-.6-.2-1-.3-.4-.1-.6 0-.8.1-.2.1-.2.2-.2.2s.2.2.5.3c.3.2.7.3 1.1.3.3 0 .5-.1.7-.2l.2-.2c.4.2.9.4 1.4.5h-1c-.4.1-.6.2-.7.3-.2.3-.2.4-.2.4s.2.1.5.2.7.1 1.1 0c.3-.1.5-.2.6-.3.1-.1.1-.2.1-.3.4.1.8.1 1.2.1.1 0 .1 0 .1-.1s-.1-.1-.1-.1c-.4 0-.8 0-1.2-.1v-.3c0-.2-.1-.3-.3-.5-.2-.3-.4-.5-.6-.6-.2-.1-.3-.2-.3-.2s-.1.1-.1.3c0 .2 0 .4.2.7.2.3.5.5.7.6-.5-.1-.9-.3-1.4-.5 0-.1.1-.2.1-.3 0-.2 0-.4-.1-.6-.1-.3-.3-.6-.4-.8-.1-.2-.3-.3-.3-.3l-.2.2c-.1.1-.1.4 0 .7.1.3.4.6.6.8-.4-.3-.8-.5-1.2-.9 0 0 .1-.1.2-.3 0-.1.1-.4 0-.6 0-.3-.1-.6-.2-.8-.1-.3-.2-.4-.2-.4s-.1 0-.2.2c-.1.1-.2.3-.2.7 0 .3.1.7.3.9-.3-.4-.6-.7-.9-1.2.1 0 .2-.1.2-.2.1-.1.2-.3.2-.6.1-.3 0-.6 0-.9 0-.2-.1-.4-.1-.4s-.1 0-.3.1c-.1.1-.3.2-.4.6-.1.3-.1.7 0 1-.2-.4-.4-.9-.5-1.4.1 0 .2-.1.3-.2.1-.1.3-.3.4-.5.3-.3.4-.6.4-.8 0-.2.1-.4.1-.4h-.3c-.2 0-.4.1-.6.5-.2.3-.2.6-.2.9-.1-.5-.1-1-.1-1.4.1 0 .2 0 .3-.1.1-.1.3-.2.5-.4.2-.3.4-.5.5-.7l.2-.4s-.1-.1-.3-.1c-.2 0-.4 0-.7.3-.3.2-.4.6-.5.8 0-.5.2-1 .3-1.4h.3c.2.1.4 0 .6-.1zm11.8 0c-.3-.2-.5-.4-.7-.6-.1-.2-.2-.3-.2-.3s.1-.1.2-.1c.2-.1.4-.1.7.1.3.1.6.4.7.6-.1-.5-.4-.9-.6-1.3-.1 0-.2.1-.3.1h-.6c-.3-.1-.6-.2-.8-.3-.2-.1-.3-.2-.3-.2l.2-.2c.1-.1.4-.2.7-.1.3.1.6.2.9.4-.2-.3-.4-.5-.7-.7 0 0-.5 0-1.2-.5-.7-.4-1-1-1-1s.6-.2 1.5.3c.6.4.9.9.9 1 .3.2.5.5.7.8-.1-.3-.3-.6-.4-1-.1-.4-.1-.6 0-.8l.1-.2s.2.1.4.4c.2.3.4.6.5 1 0 .3 0 .5-.1.7l-.2.2c.3.4.5.9.7 1.3-.1-.3-.1-.6-.1-1s.1-.6.2-.8l.2-.2s.1.2.3.5c.1.3.2.7.2 1.1 0 .3-.2.5-.3.6-.3.2-.5.3-.5.3.2.5.3 1 .3 1.5 0-.3.1-.6.2-1s.3-.6.4-.7c.1-.1.2-.1.2-.1s.1.2.1.6c0 .3 0 .8-.2 1.1-.1.3-.3.4-.4.5-.1.1-.3.1-.3.1 0 .5 0 1-.1 1.5.1-.3.2-.6.5-.9.2-.3.4-.5.6-.5.2-.1.3 0 .3 0s0 .2-.1.6c-.1.3-.2.7-.5 1-.2.2-.4.3-.6.4h-.3c-.1.5-.3 1-.5 1.4.2-.2.4-.5.7-.8.3-.3.5-.3.7-.4h.3s-.1.2-.2.5-.4.6-.7.9c-.3.2-.5.2-.6.2-.2 0-.3-.1-.3-.1l-.9 1.2c.2-.2.5-.4.9-.5.4-.2.6-.2.8-.1.2 0 .2.1.2.1s-.1.2-.3.4c-.2.2-.6.5-1 .6-.3.1-.5.1-.7 0-.2 0-.2-.1-.3-.2l-1.2.9c.3-.1.6-.2 1-.3.4-.1.6 0 .8.1.2.1.2.2.2.2s-.2.2-.5.3c-.3.2-.7.3-1.1.3-.3 0-.5-.1-.7-.2l-.2-.2c-.4.2-.9.4-1.4.5h1c.4.1.6.2.7.3.1.1.1.2.1.2s-.2.1-.5.2-.7.1-1.1 0c-.3-.1-.5-.2-.6-.3-.1-.1-.1-.2-.1-.3-.4.1-.8.1-1.2.1-.1 0-.1 0-.1-.1s.1-.1.1-.1c.4 0 .8 0 1.2-.1v-.3c0-.2.1-.3.3-.5.2-.3.4-.5.6-.6.2-.1.3-.2.3-.2s.1.1.1.3c0 .2 0 .4-.2.7-.2.3-.5.5-.7.6.5-.1.9-.3 1.4-.5 0-.1-.1-.2-.1-.3 0-.2 0-.4.1-.6.1-.3.3-.6.4-.8.1-.2.3-.3.3-.3l.2.2c.1.1.1.4 0 .7-.1.3-.3.6-.5.8.4-.3.8-.5 1.2-.9 0 0-.1-.1-.2-.3 0-.1-.1-.4 0-.6 0-.3.1-.6.2-.8l.2-.4s.1 0 .2.2c.1.1.2.3.2.7 0 .3-.1.7-.3.9.3-.4.6-.7.9-1.2-.1 0-.2-.1-.2-.2-.1-.1-.2-.3-.2-.6-.1-.3 0-.6 0-.9 0-.2.1-.4.1-.4s.1 0 .3.1c.1.1.3.2.4.6.1.3.1.7 0 1 .2-.4.4-.9.5-1.4-.1 0-.2-.1-.3-.2-.1-.1-.3-.3-.4-.5-.2-.3-.2-.6-.3-.8 0-.2-.1-.4-.1-.4h.3c.2 0 .4.1.6.5.1.4.1.7.1 1 .1-.5.1-1 .1-1.4-.1 0-.2 0-.3-.1-.1-.1-.3-.2-.5-.4-.2-.3-.4-.5-.5-.7l-.2-.4s.1-.1.3-.1c.2 0 .4 0 .7.3.3.2.4.6.5.8 0-.5-.2-1-.3-1.4h-.3c-.2.1-.4 0-.6-.1z" fill="#DC7D50"/></svg>