<svg width="24" height="24" fill="none" xmlns="http://www.w3.org/2000/svg"><path d="M24 11.998c0 6.626-5.372 11.999-11.998 11.999C5.372 24 0 18.627 0 11.998 0 5.372 5.372 0 11.998 0 18.628 0 24 5.372 24 11.998z" fill="#FFC300"/><path d="M11.998 22.106c-5.572 0-10.104-4.532-10.104-10.104 0-5.573 4.532-10.105 10.104-10.105 5.573 0 10.104 4.532 10.104 10.105 0 5.572-4.531 10.104-10.104 10.104zm0-19.578c-5.222 0-9.474 4.248-9.474 9.474 0 5.225 4.249 9.474 9.474 9.474 5.226 0 9.474-4.249 9.474-9.474 0-5.226-4.248-9.474-9.474-9.474z" fill="#F59B19"/><path d="M6.096 9.764c.29-.177.513-.387.673-.557.16-.17.25-.297.25-.3 0 0-.076-.08-.236-.133-.157-.05-.397-.077-.72.073-.317.15-.557.414-.704.64.183-.446.413-.877.687-1.273.053.04.157.096.31.123.153.027.357.02.614-.05.326-.087.603-.23.8-.347.2-.117.323-.217.323-.217s-.053-.1-.19-.193c-.136-.093-.36-.187-.713-.13-.344.057-.647.243-.857.42.21-.263.436-.51.68-.74 0 0 .51-.02 1.22-.454.664-.38 1.004-1.04 1.004-1.04s-.603-.18-1.454.313c-.633.407-.85.927-.897 1.047-.253.237-.49.494-.703.767.13-.25.286-.583.386-.95.1-.377.084-.63.024-.794a.464.464 0 0 0-.15-.227s-.18.147-.38.41c-.2.26-.41.638-.47 1.041-.047.317.003.53.076.674a.623.623 0 0 0 .22.25c-.283.41-.52.853-.707 1.317.057-.277.113-.64.107-1.024-.007-.39-.097-.627-.197-.767s-.207-.176-.207-.176-.133.193-.253.5-.217.723-.164 1.13c.044.317.154.51.264.627.11.117.22.16.28.177a7.287 7.287 0 0 0-.31 1.464 4.616 4.616 0 0 0-.187-1.01c-.117-.37-.27-.577-.403-.68-.134-.108-.247-.114-.247-.11 0 0-.073.223-.103.55-.03.326-.004.756.16 1.13.13.293.29.443.426.527.137.08.257.093.32.093-.016.497.02 1 .11 1.49a4.816 4.816 0 0 0-.46-.92c-.216-.323-.42-.477-.576-.54-.16-.063-.27-.037-.27-.037s-.007.234.056.557c.063.32.207.727.467 1.04.207.248.4.348.554.387.156.04.27.02.333 0 .123.484.3.954.52 1.401a4.686 4.686 0 0 0-.697-.754c-.297-.25-.537-.343-.707-.36a.508.508 0 0 0-.27.037s.057.23.21.52c.15.29.404.644.74.867.267.18.484.22.644.217a.627.627 0 0 0 .32-.093c.254.43.554.833.894 1.197a4.682 4.682 0 0 0-.88-.527c-.357-.157-.61-.18-.78-.147a.468.468 0 0 0-.247.11s.12.204.346.44c.227.237.567.504.954.624.307.097.524.077.677.03.15-.05.24-.13.28-.18.364.343.764.647 1.19.904a4.732 4.732 0 0 0-.993-.264c-.387-.053-.637-.003-.79.077a.482.482 0 0 0-.207.177s.17.16.453.327c.284.166.684.326 1.09.336.32.007.528-.073.658-.16a.599.599 0 0 0 .22-.25c.443.227.914.407 1.397.534a4.734 4.734 0 0 0-1.027.026c-.387.06-.61.177-.737.294-.127.116-.15.226-.15.226s.21.107.53.187c.317.08.747.124 1.14.017.31-.083.484-.217.588-.34a.63.63 0 0 0 .14-.304c.39.074.787.117 1.187.124.073 0 .133-.04.133-.09 0-.05-.056-.094-.13-.094a6.704 6.704 0 0 1-1.154-.12.726.726 0 0 0-.013-.333 1.477 1.477 0 0 0-.29-.544 3.2 3.2 0 0 0-.637-.597c-.187-.136-.327-.21-.327-.21s-.07.087-.103.25c-.03.164-.027.407.166.707.19.294.48.497.727.617a6.866 6.866 0 0 1-1.353-.517.713.713 0 0 0 .083-.323 1.466 1.466 0 0 0-.127-.604 3.068 3.068 0 0 0-.447-.75c-.143-.183-.256-.294-.256-.294s-.09.064-.167.214c-.074.147-.137.384-.037.724.1.333.32.613.524.797a7 7 0 0 1-1.154-.874.712.712 0 0 0 .167-.287c.05-.147.073-.35.046-.617a3.237 3.237 0 0 0-.22-.847c-.087-.217-.163-.353-.163-.353s-.107.036-.22.156c-.114.12-.24.327-.237.684.003.347.14.677.283.91a6.993 6.993 0 0 1-.863-1.16c.056-.03.153-.1.24-.23.09-.127.17-.317.217-.577.06-.333.046-.64.026-.87-.023-.23-.06-.384-.06-.384s-.11.007-.253.09c-.144.084-.324.247-.42.59-.097.337-.057.69.016.954a6.786 6.786 0 0 1-.507-1.357.736.736 0 0 0 .297-.15c.12-.097.25-.257.37-.494.15-.303.227-.603.27-.83a2.37 2.37 0 0 0 .05-.387s-.11-.027-.27.017c-.16.04-.376.15-.57.45-.187.293-.247.647-.25.917a6.763 6.763 0 0 1-.103-1.444.757.757 0 0 0 .326-.063 1.46 1.46 0 0 0 .494-.374c.23-.25.383-.517.49-.723.104-.207.157-.357.157-.357s-.097-.054-.264-.06c-.166-.004-.403.036-.67.273a1.84 1.84 0 0 0-.497.814c.05-.48.15-.957.3-1.417.06.023.177.05.33.03.15-.03.344-.094.57-.234zm11.808 0a3.264 3.264 0 0 1-.674-.557c-.16-.17-.25-.297-.25-.3 0 0 .077-.08.237-.133.157-.05.4-.077.72.073.317.15.557.414.707.64a6.795 6.795 0 0 0-.686-1.273.732.732 0 0 1-.31.123c-.154.027-.357.02-.614-.05a3.219 3.219 0 0 1-.804-.347c-.2-.117-.323-.217-.323-.217s.053-.1.19-.193c.136-.093.36-.187.713-.13.344.057.647.243.857.42a7.164 7.164 0 0 0-.68-.74s-.51-.02-1.22-.454c-.664-.38-1.004-1.04-1.004-1.04s.6-.18 1.454.313c.633.407.85.927.897 1.047.253.237.49.494.703.767a4.878 4.878 0 0 1-.386-.95c-.1-.377-.08-.63-.024-.794a.464.464 0 0 1 .15-.227s.18.147.38.41c.2.26.41.638.47 1.041.047.317-.003.53-.076.674a.623.623 0 0 1-.22.25c.28.41.52.853.707 1.317a4.754 4.754 0 0 1-.107-1.024c.007-.39.097-.627.197-.767s.207-.176.207-.176.133.193.253.5.217.723.164 1.13c-.044.317-.154.51-.264.627a.598.598 0 0 1-.28.177c.153.473.26.967.31 1.464.023-.28.07-.644.187-1.01.117-.37.27-.577.403-.68.134-.108.247-.114.247-.11 0 0 .073.223.103.55.03.326.004.756-.16 1.13-.13.293-.29.443-.426.527a.642.642 0 0 1-.32.093c.016.497-.02 1-.11 1.49.1-.263.246-.6.46-.92.216-.323.42-.477.577-.54.156-.063.27-.037.27-.037s.01.234-.057.557c-.064.32-.207.727-.467 1.04-.207.248-.4.348-.557.387a.603.603 0 0 1-.333 0c-.124.484-.3.954-.524 1.401.174-.223.404-.507.697-.754.297-.25.537-.343.707-.36.17-.016.27.037.27.037s-.056.23-.21.52c-.15.29-.403.644-.74.867-.267.18-.484.22-.644.217a.627.627 0 0 1-.32-.093c-.253.43-.553.833-.894 1.197.227-.167.53-.374.88-.527.358-.157.61-.18.781-.147.167.03.247.11.247.11s-.12.204-.347.44c-.227.237-.567.504-.954.624-.307.097-.523.077-.677.03a.625.625 0 0 1-.28-.18 6.959 6.959 0 0 1-1.19.904c.263-.097.613-.214.993-.264.387-.053.637-.003.79.077a.483.483 0 0 1 .207.177s-.17.16-.453.327c-.284.166-.684.326-1.09.336-.32.007-.527-.073-.657-.16a.6.6 0 0 1-.22-.25 6.936 6.936 0 0 1-1.398.534c.284-.02.647-.03 1.027.026.384.06.61.177.737.294.127.116.15.226.15.226s-.21.107-.53.187c-.317.08-.747.124-1.14.017-.31-.083-.484-.217-.587-.34a.597.597 0 0 1-.14-.304 7.06 7.06 0 0 1-1.188.124c-.073 0-.133-.04-.133-.09 0-.05.057-.094.13-.094a6.704 6.704 0 0 0 1.154-.12.725.725 0 0 1 .013-.333c.037-.15.124-.337.29-.544a3.2 3.2 0 0 1 .637-.597 2.89 2.89 0 0 1 .327-.21s.07.087.1.25c.03.164.027.407-.163.707-.187.294-.48.497-.727.617a6.73 6.73 0 0 0 1.35-.517.72.72 0 0 1-.08-.323 1.466 1.466 0 0 1 .127-.604 3.07 3.07 0 0 1 .447-.75c.143-.183.257-.294.257-.294s.09.064.167.214c.076.147.14.384.04.724a1.85 1.85 0 0 1-.524.797 7 7 0 0 0 1.154-.874.712.712 0 0 1-.167-.287 1.48 1.48 0 0 1-.047-.617c.037-.337.134-.63.22-.847.087-.217.164-.353.164-.353s.107.036.22.156.24.327.237.684c-.004.347-.14.677-.284.91.327-.353.617-.747.864-1.16a.698.698 0 0 1-.24-.23 1.439 1.439 0 0 1-.217-.577 3.278 3.278 0 0 1-.027-.87c.024-.23.057-.384.06-.384 0 0 .11.007.257.09.144.084.32.247.42.59.097.337.057.69-.016.954.216-.433.383-.887.503-1.357a.736.736 0 0 1-.297-.15 1.498 1.498 0 0 1-.37-.494 3.26 3.26 0 0 1-.27-.83 2.353 2.353 0 0 1-.05-.387s.11-.027.27.017c.16.04.377.15.567.45.187.293.247.647.25.917.087-.477.12-.96.104-1.444a.757.757 0 0 1-.327-.063 1.492 1.492 0 0 1-.494-.374 3.12 3.12 0 0 1-.486-.723 3.548 3.548 0 0 1-.157-.357s.096-.054.263-.06c.167-.004.404.036.67.273.26.234.417.554.497.814-.05-.48-.15-.957-.3-1.417a.697.697 0 0 1-.33.03 1.735 1.735 0 0 1-.567-.234z" fill="#F59B19"/></svg>