<svg width="87" height="87" fill="none" xmlns="http://www.w3.org/2000/svg"><path d="M87 67.136C87 78.113 78.113 87 67.136 87H19.864C8.887 87 0 78.113 0 67.136V19.881C0 8.904 8.904 0 19.88 0h46.95C77.977 0 87 9.023 87 20.17v46.966z" fill="url(#paint0_radial)"/><path d="M55.598 11.998H31.402c-10.723 0-19.423 8.7-19.423 19.422V55.6c0 10.722 8.684 19.405 19.423 19.405h24.18c10.721 0 19.405-8.683 19.405-19.405V31.42c.017-10.74-8.666-19.422-19.389-19.422zm13.356 41.274c0 8.666-7.017 15.683-15.683 15.683H33.73c-8.666 0-15.684-7.017-15.684-15.683V33.73c0-8.666 7.018-15.684 15.684-15.684h19.54c8.666 0 15.684 7.034 15.684 15.684v19.54z" fill="#fff"/><path d="M44.35 27.018c-9.176 0-16.601 7.425-16.601 16.6 0 9.16 7.425 16.602 16.601 16.602 9.159 0 16.601-7.425 16.601-16.601-.017-9.176-7.442-16.601-16.601-16.601zm0 26.575a9.986 9.986 0 0 1-9.991-9.991 9.986 9.986 0 0 1 9.991-9.991c5.505 0 9.991 4.469 9.991 9.991-.017 5.522-4.486 9.991-9.991 9.991zm19.66-26.829a4.213 4.213 0 1 1-8.429 0c0-2.328 1.886-4.231 4.214-4.231a4.217 4.217 0 0 1 4.214 4.23z" fill="#fff"/><defs><radialGradient id="paint0_radial" cx="0" cy="0" r="1" gradientUnits="userSpaceOnUse" gradientTransform="matrix(115.288 0 0 115.285 25.483 93.736)"><stop offset=".097" stop-color="#FFD87A"/><stop offset=".143" stop-color="#FCCE78"/><stop offset=".226" stop-color="#F5B471"/><stop offset=".338" stop-color="#EB8D65"/><stop offset=".449" stop-color="#E36058"/><stop offset=".679" stop-color="#CD3694"/><stop offset="1" stop-color="#6668B0"/></radialGradient></defs></svg>