<svg width="56" height="46" fill="none" xmlns="http://www.w3.org/2000/svg"><path d="M21.556 4.246A4.243 4.243 0 0 0 17.31 0a4.243 4.243 0 0 0-4.247 4.246 4.243 4.243 0 0 0 4.247 4.246 4.243 4.243 0 0 0 4.246-4.246zm.949 41.738h-7.693c1.598-.475 3.821-2.897 4.52-5.17l3.697-11.84h3.323l10.04-.025c2.373 0 4.846-1.698 5.67-3.796l1.474-4.796-17.809.075 1.349-4.396c.7-2.273 3.297-4.147 5.795-4.147l16.91-.1c2.522-.024 5.345-1.598 6.219-2.872l-2.523 8.193-4.346 13.563c-1.349 4.22-4.096 6.769-9.167 6.794l-10.64.025L28 41.761c-.674 2.324-3.172 4.222-5.495 4.222zm-7.843-34.169h4.746L10.29 41.712c-.725 2.323-3.197 4.221-5.52 4.221H0l1.024-3.297c0-.013.006-.025.013-.038a.089.089 0 0 0 .012-.037l8.118-26.526c.7-2.323 3.197-4.222 5.495-4.222z" fill="#fff"/></svg>