<svg width="38" height="63" fill="none" xmlns="http://www.w3.org/2000/svg"><path d="M13.296 23.623h10.826L36.924 0H26.092L13.296 23.623z" fill="#3773CC"/><path d="M25.104 32.937H12.303a2.957 2.957 0 0 1-2.953-2.952v-5.374a2.957 2.957 0 0 1 2.953-2.953h12.801a2.957 2.957 0 0 1 2.953 2.953v5.374a2.957 2.957 0 0 1-2.953 2.952zm-12.801-9.314a.985.985 0 0 0-.983.982v5.375c0 .546.442.982.983.982h12.801c.54 0 .983-.442.983-.982v-5.37a.982.982 0 0 0-.983-.982H12.303v-.005z" fill="#F59B19"/><path d="M37.407 44.3c0 10.327-8.373 18.7-18.7 18.7C8.372 63 0 54.627 0 44.3c0-10.328 8.373-18.702 18.7-18.702 10.334-.005 18.707 8.368 18.707 18.701z" fill="#FFC300"/><path d="M18.7 60.048c-8.684 0-15.748-7.064-15.748-15.749S10.016 28.55 18.701 28.55 34.45 35.614 34.45 44.3 27.386 60.048 18.7 60.048zm0-30.515c-8.138 0-14.765 6.621-14.765 14.766S10.556 59.065 18.7 59.065 33.467 52.444 33.467 44.3s-6.621-14.766-14.766-14.766z" fill="#F59B19"/><path d="M24.117 23.623H13.29L.494 0H11.32l12.797 23.623z" fill="#3D9BE8"/><path d="M9.501 40.817c.452-.276.8-.603 1.05-.868s.39-.463.39-.468c0 0-.12-.125-.37-.208-.243-.078-.618-.12-1.122.114-.494.234-.868.645-1.096.998a10.55 10.55 0 0 1 1.07-1.985c.083.062.245.15.484.192.239.042.556.031.956-.078a4.97 4.97 0 0 0 1.247-.54c.312-.182.505-.338.505-.338s-.084-.156-.297-.302c-.213-.145-.561-.29-1.112-.202-.535.088-1.008.379-1.336.654.328-.41.681-.795 1.06-1.153 0 0 .796-.032 1.903-.707 1.034-.593 1.564-1.622 1.564-1.622s-.94-.28-2.266.489c-.987.634-1.325 1.445-1.398 1.632a10.43 10.43 0 0 0-1.097 1.195c.203-.39.447-.91.603-1.481.156-.588.13-.983.037-1.237-.089-.255-.234-.354-.234-.354s-.28.23-.593.64c-.312.405-.64.992-.733 1.621-.072.494.006.827.12 1.05a.971.971 0 0 0 .343.39c-.442.64-.81 1.33-1.102 2.053.088-.431.177-.998.166-1.596-.01-.608-.15-.977-.306-1.195a.75.75 0 0 0-.323-.276s-.207.302-.395.78c-.187.478-.337 1.128-.254 1.762.067.494.239.795.41.977.172.182.343.25.437.276-.24.738-.4 1.507-.483 2.282a7.194 7.194 0 0 0-.291-1.575c-.182-.577-.421-.9-.63-1.06-.207-.167-.384-.177-.384-.172 0 0-.114.348-.161.857-.047.51-.005 1.18.25 1.762.202.458.452.692.665.822a1 1 0 0 0 .499.145c-.026.775.03 1.56.171 2.323-.161-.41-.384-.935-.717-1.434-.338-.504-.655-.743-.9-.842-.249-.099-.42-.057-.42-.057s-.01.364.088.868c.099.499.322 1.133.728 1.621.322.385.623.541.863.603a.939.939 0 0 0 .52 0c.192.754.467 1.487.81 2.183a7.308 7.308 0 0 0-1.086-1.174c-.463-.39-.837-.536-1.102-.562-.265-.026-.421.058-.421.058s.088.358.327.81c.234.453.63 1.004 1.154 1.352.416.28.754.343 1.003.337a.98.98 0 0 0 .5-.145c.394.67.862 1.3 1.392 1.866a7.26 7.26 0 0 0-1.372-.821c-.556-.245-.951-.28-1.216-.229-.265.047-.385.172-.385.172s.187.317.54.686c.354.369.884.784 1.487.972.479.15.816.12 1.056.046a.945.945 0 0 0 .436-.28c.567.535 1.19 1.008 1.856 1.408-.416-.15-.957-.332-1.55-.41-.602-.084-.992-.006-1.231.12-.24.119-.322.275-.322.275s.265.25.707.509c.441.26 1.065.51 1.7.525.498.01.82-.114 1.023-.25a.935.935 0 0 0 .343-.39 10.82 10.82 0 0 0 2.178.832 7.376 7.376 0 0 0-1.601.042c-.603.093-.951.275-1.149.457a.75.75 0 0 0-.233.354s.327.166.826.29c.494.125 1.164.193 1.777.027.484-.13.754-.338.915-.53a.98.98 0 0 0 .219-.473 11.01 11.01 0 0 0 1.85.192c.114 0 .208-.063.208-.14 0-.078-.089-.146-.203-.146a10.435 10.435 0 0 1-1.798-.187 1.13 1.13 0 0 0-.021-.52c-.057-.234-.198-.525-.452-.847a4.998 4.998 0 0 0-.993-.93 4.482 4.482 0 0 0-.51-.328s-.108.135-.16.39c-.047.255-.042.634.26 1.102.296.457.748.774 1.132.961a10.706 10.706 0 0 1-2.11-.805c.052-.089.12-.26.13-.504.01-.245-.041-.557-.197-.941a4.783 4.783 0 0 0-.697-1.17c-.223-.285-.4-.457-.4-.457s-.14.099-.26.333c-.114.228-.213.597-.057 1.128.156.52.499.956.816 1.242a10.913 10.913 0 0 1-1.798-1.362 1.11 1.11 0 0 0 .26-.447c.077-.229.114-.546.072-.962a5.048 5.048 0 0 0-.343-1.32c-.135-.338-.255-.55-.255-.55s-.166.056-.343.244c-.176.187-.374.509-.369 1.065.006.54.219 1.055.442 1.419-.51-.55-.961-1.164-1.346-1.809.088-.047.24-.156.374-.358.14-.198.265-.494.338-.9.094-.52.073-.997.042-1.356-.037-.359-.094-.598-.094-.598s-.171.01-.395.14c-.223.13-.504.385-.655.92-.15.525-.088 1.076.026 1.487a10.575 10.575 0 0 1-.79-2.115c.099-.021.276-.084.463-.234.187-.151.39-.4.577-.77.234-.473.353-.94.42-1.294.068-.353.084-.603.079-.603 0 0-.172-.041-.421.026-.25.063-.588.234-.89.702-.29.457-.384 1.008-.389 1.43a10.54 10.54 0 0 1-.161-2.251c.104.005.286-.005.51-.099.223-.094.488-.276.769-.582.358-.39.597-.806.764-1.128.16-.322.244-.556.244-.556s-.15-.083-.41-.094c-.26-.005-.63.057-1.045.426-.406.364-.65.863-.775 1.269a10.72 10.72 0 0 1 .468-2.21c.093.037.275.079.514.047.234-.051.536-.15.89-.363zm18.405 0a5.088 5.088 0 0 1-1.05-.868 3.935 3.935 0 0 1-.39-.468s.12-.125.37-.208c.243-.078.623-.12 1.122.114.494.234.868.645 1.102.998a10.598 10.598 0 0 0-1.071-1.985 1.15 1.15 0 0 1-.483.192c-.24.042-.556.031-.957-.078a5.018 5.018 0 0 1-1.252-.54c-.312-.182-.505-.338-.505-.338s.084-.156.297-.302c.213-.145.561-.29 1.112-.202.535.088 1.008.379 1.336.654-.328-.41-.681-.795-1.06-1.153 0 0-.796-.032-1.903-.707-1.034-.593-1.564-1.622-1.564-1.622s.935-.28 2.266.489c.987.634 1.325 1.445 1.398 1.632.395.369.764.769 1.097 1.195a7.603 7.603 0 0 1-.603-1.481c-.156-.588-.125-.983-.037-1.237.089-.255.234-.354.234-.354s.281.23.593.64c.312.405.64.992.733 1.621.072.494-.005.827-.12 1.05a.971.971 0 0 1-.343.39c.437.64.81 1.33 1.102 2.053a7.41 7.41 0 0 1-.166-1.596c.01-.608.15-.977.306-1.195.156-.218.323-.276.323-.276s.207.302.395.78c.187.478.337 1.128.254 1.762-.067.494-.239.795-.41.977a.932.932 0 0 1-.437.276c.24.738.405 1.507.483 2.282.037-.437.11-1.004.291-1.575.182-.577.422-.9.63-1.06.207-.167.384-.177.384-.172 0 0 .114.348.161.857.047.51.005 1.18-.25 1.762-.202.458-.451.692-.665.822a1 1 0 0 1-.499.145 10.89 10.89 0 0 1-.171 2.323c.156-.41.384-.935.717-1.434.338-.504.655-.743.9-.842.244-.099.42-.057.42-.057s.016.364-.088.868c-.099.499-.322 1.133-.728 1.621-.322.385-.623.541-.868.603a.941.941 0 0 1-.52 0 10.934 10.934 0 0 1-.816 2.183c.27-.348.63-.79 1.087-1.174.462-.39.837-.536 1.102-.562a.792.792 0 0 1 .42.058s-.088.358-.327.81c-.234.453-.629 1.004-1.154 1.352-.415.28-.753.343-1.003.337a.976.976 0 0 1-.499-.145c-.395.67-.863 1.3-1.393 1.866.354-.26.827-.582 1.372-.821.557-.245.952-.28 1.217-.229a.76.76 0 0 1 .384.172s-.187.317-.54.686c-.354.369-.884.784-1.487.972-.478.15-.816.12-1.055.046a.976.976 0 0 1-.436-.28 10.84 10.84 0 0 1-1.856 1.408c.41-.15.956-.332 1.549-.41.603-.084.993-.006 1.232.12.239.119.322.275.322.275s-.265.25-.707.509c-.442.26-1.065.51-1.7.525-.498.01-.82-.114-1.023-.25a.935.935 0 0 1-.343-.39 10.79 10.79 0 0 1-2.178.832 7.375 7.375 0 0 1 1.6.042c.598.093.952.275 1.15.457.197.182.233.354.233.354s-.327.166-.826.29c-.494.125-1.165.193-1.778.027-.483-.13-.753-.338-.915-.53a.931.931 0 0 1-.218-.473 11.01 11.01 0 0 1-1.85.192c-.115 0-.208-.063-.208-.14 0-.078.088-.146.203-.146.602-.01 1.205-.073 1.798-.187a1.13 1.13 0 0 1 .02-.52c.058-.234.193-.525.453-.847.327-.416.702-.717.993-.93.29-.214.509-.328.509-.328s.11.135.156.39c.047.255.042.634-.255 1.102-.29.457-.748.774-1.133.961a10.533 10.533 0 0 0 2.105-.805 1.125 1.125 0 0 1-.125-.504c-.01-.245.042-.557.198-.941.197-.494.473-.884.697-1.17.223-.285.4-.457.4-.457s.14.099.26.333c.12.228.218.597.062 1.128-.156.52-.504.956-.816 1.242a10.97 10.97 0 0 0 1.798-1.362 1.11 1.11 0 0 1-.26-.447c-.078-.229-.114-.546-.072-.962.057-.525.208-.982.343-1.32.135-.338.254-.55.254-.55s.167.056.343.244c.177.187.375.509.37 1.065-.006.54-.219 1.055-.442 1.419a10.88 10.88 0 0 0 1.346-1.809 1.086 1.086 0 0 1-.374-.358c-.14-.198-.265-.494-.338-.9a5.106 5.106 0 0 1-.042-1.356c.037-.359.088-.598.094-.598 0 0 .171.01.4.14.223.13.499.385.655.92.15.525.088 1.076-.026 1.487.338-.676.598-1.383.785-2.115a1.146 1.146 0 0 1-.463-.234c-.187-.151-.39-.4-.577-.77a5.07 5.07 0 0 1-.42-1.294 3.69 3.69 0 0 1-.079-.603s.172-.041.421.026c.25.063.588.234.884.702.29.457.384 1.008.39 1.43.135-.744.187-1.498.16-2.251a1.177 1.177 0 0 1-.509-.099c-.223-.094-.483-.276-.769-.582a4.866 4.866 0 0 1-.759-1.128c-.16-.322-.244-.556-.244-.556s.15-.083.41-.094c.26-.005.63.057 1.045.426.406.364.65.863.775 1.269a10.721 10.721 0 0 0-.468-2.21 1.086 1.086 0 0 1-.515.047 2.962 2.962 0 0 1-.883-.363z" fill="#F59B19"/></svg>