<svg width="24" height="24" fill="none" xmlns="http://www.w3.org/2000/svg"><path d="M24 11.998c0 6.626-5.372 11.999-11.998 11.999C5.372 24 0 18.627 0 11.998 0 5.372 5.372 0 11.998 0 18.628 0 24 5.372 24 11.998z" fill="#CCC"/><path d="M11.998 22.106c-5.572 0-10.104-4.532-10.104-10.104 0-5.573 4.532-10.105 10.104-10.105 5.573 0 10.105 4.532 10.105 10.105 0 5.572-4.532 10.104-10.105 10.104zm0-19.578c-5.222 0-9.474 4.248-9.474 9.474 0 5.225 4.249 9.474 9.474 9.474 5.226 0 9.474-4.249 9.474-9.474 0-5.226-4.248-9.474-9.474-9.474z" fill="#A0A0A0"/><path d="M6.096 9.764c.29-.177.513-.387.673-.557.16-.17.25-.297.25-.3 0 0-.076-.08-.236-.133-.157-.05-.397-.077-.72.073-.317.15-.557.414-.704.64.183-.446.413-.877.687-1.273.053.04.157.096.31.123.153.027.357.02.614-.05.326-.087.603-.23.8-.347.2-.117.323-.217.323-.217s-.053-.1-.19-.193c-.136-.093-.36-.187-.713-.13-.344.057-.647.243-.857.42.21-.263.436-.51.68-.74 0 0 .51-.02 1.22-.454.664-.38 1.004-1.04 1.004-1.04s-.603-.18-1.454.313c-.633.407-.85.927-.897 1.047-.253.237-.49.494-.703.767.13-.25.286-.583.386-.95.1-.377.084-.63.024-.794a.464.464 0 0 0-.15-.227s-.18.147-.38.41c-.2.26-.41.638-.47 1.041-.047.317.003.53.076.674a.623.623 0 0 0 .22.25c-.283.41-.52.854-.707 1.317.057-.277.113-.64.107-1.024-.01-.39-.097-.627-.197-.767s-.207-.176-.207-.176-.133.193-.253.5-.217.723-.164 1.13c.044.317.154.51.264.627.11.117.22.16.28.177a7.288 7.288 0 0 0-.31 1.464 4.616 4.616 0 0 0-.187-1.01c-.117-.37-.27-.577-.403-.68-.134-.108-.247-.114-.247-.11 0 0-.073.223-.103.55-.03.326-.004.756.16 1.13.13.293.29.443.426.527.137.08.257.093.32.093-.016.497.02 1 .11 1.49a4.816 4.816 0 0 0-.46-.92c-.216-.323-.42-.477-.576-.54-.16-.063-.27-.037-.27-.037s-.007.234.056.557c.063.32.207.727.467 1.04.207.248.4.348.554.388.156.04.27.02.333 0 .123.483.3.953.52 1.4a4.69 4.69 0 0 0-.697-.754c-.297-.25-.537-.343-.707-.36-.17-.016-.27.037-.27.037s.057.23.21.52c.15.29.404.644.74.867.267.18.484.22.644.217a.627.627 0 0 0 .32-.093c.254.43.554.833.894 1.197a4.682 4.682 0 0 0-.88-.527c-.357-.157-.61-.18-.78-.147a.467.467 0 0 0-.247.11s.12.204.346.44c.227.237.567.504.954.624.307.097.524.077.677.03.15-.05.24-.13.28-.18a6.96 6.96 0 0 0 1.19.904 4.744 4.744 0 0 0-.993-.264c-.387-.053-.637-.003-.79.077-.154.077-.207.177-.207.177s.17.16.453.327c.284.166.684.326 1.09.336.32.007.528-.073.658-.16a.6.6 0 0 0 .22-.25c.443.227.914.407 1.397.534a4.734 4.734 0 0 0-1.027.026c-.387.06-.61.177-.737.294a.482.482 0 0 0-.15.227s.21.106.53.186c.317.08.747.124 1.14.017.31-.083.484-.217.588-.34.1-.123.13-.237.14-.304.39.074.787.117 1.187.124.073 0 .133-.04.133-.09 0-.05-.056-.094-.13-.094a6.704 6.704 0 0 1-1.154-.12.725.725 0 0 0-.013-.333 1.476 1.476 0 0 0-.29-.544 3.2 3.2 0 0 0-.637-.597c-.187-.136-.327-.21-.327-.21s-.07.087-.103.25c-.03.164-.027.407.166.707.19.294.48.497.727.617a6.867 6.867 0 0 1-1.353-.517.713.713 0 0 0 .083-.323 1.466 1.466 0 0 0-.127-.604 3.068 3.068 0 0 0-.447-.75c-.143-.183-.256-.293-.256-.293s-.09.063-.167.213c-.074.147-.137.384-.037.724.1.333.32.613.524.797-.414-.25-.8-.544-1.154-.874a.711.711 0 0 0 .167-.287c.05-.147.073-.35.046-.617a3.236 3.236 0 0 0-.22-.847c-.087-.217-.163-.353-.163-.353s-.107.036-.22.156c-.114.12-.24.327-.237.684.003.347.14.677.283.91a6.983 6.983 0 0 1-.863-1.16c.056-.03.153-.1.24-.23.09-.127.17-.317.217-.577.06-.333.046-.64.026-.87-.023-.23-.06-.384-.06-.384s-.11.007-.253.09c-.144.084-.324.247-.42.59-.097.337-.057.69.016.954a6.783 6.783 0 0 1-.507-1.357.736.736 0 0 0 .297-.15c.12-.097.25-.257.37-.494.15-.303.227-.603.27-.83.044-.227.054-.387.05-.387 0 0-.11-.027-.27.017-.16.04-.376.15-.57.45-.187.293-.247.647-.25.917a6.763 6.763 0 0 1-.103-1.444.757.757 0 0 0 .326-.063c.144-.06.314-.177.494-.374.23-.25.383-.517.49-.723.104-.207.157-.357.157-.357s-.097-.054-.264-.06c-.166-.004-.403.036-.67.273a1.84 1.84 0 0 0-.497.814c.05-.48.15-.957.3-1.417.06.023.177.05.33.03.15-.03.344-.094.57-.234zm11.808 0a3.263 3.263 0 0 1-.674-.557 2.52 2.52 0 0 1-.25-.3s.077-.08.237-.133c.157-.05.4-.077.72.073.317.15.557.414.704.64a6.8 6.8 0 0 0-.687-1.273.733.733 0 0 1-.31.123c-.153.027-.357.02-.614-.05a3.216 3.216 0 0 1-.803-.347c-.2-.117-.324-.217-.324-.217s.054-.1.19-.193c.137-.093.36-.187.714-.13.343.057.647.243.857.42a7.166 7.166 0 0 0-.68-.74s-.51-.02-1.22-.454c-.664-.38-1.005-1.04-1.005-1.04s.6-.18 1.454.313c.634.407.85.927.897 1.047.254.237.49.494.704.767a4.885 4.885 0 0 1-.387-.95c-.1-.377-.08-.63-.023-.794a.464.464 0 0 1 .15-.227s.18.147.38.41c.2.26.41.638.47 1.041.047.317-.003.53-.076.674a.623.623 0 0 1-.22.25c.28.41.52.854.706 1.317a4.76 4.76 0 0 1-.106-1.024c.006-.39.097-.627.197-.767s.206-.176.206-.176.134.193.254.5.216.723.163 1.13c-.043.317-.153.51-.263.627a.597.597 0 0 1-.28.177c.153.473.26.967.31 1.464.023-.28.07-.644.186-1.01.117-.37.27-.577.404-.68.133-.108.247-.114.247-.11 0 0 .073.223.103.55.03.326.003.756-.16 1.13-.13.293-.29.443-.427.527a.642.642 0 0 1-.32.093c.017.497-.02 1-.11 1.49.103-.263.247-.6.46-.92.217-.323.42-.477.577-.54.157-.063.27-.037.27-.037s.007.234-.056.557c-.064.32-.207.727-.467 1.04-.204.248-.4.348-.557.388a.604.604 0 0 1-.334 0c-.123.483-.3.953-.523 1.4.173-.223.403-.507.697-.754.296-.25.537-.343.707-.36.17-.016.27.037.27.037s-.057.23-.21.52c-.15.29-.404.644-.74.867-.267.18-.484.22-.644.217a.627.627 0 0 1-.32-.093c-.254.43-.554.833-.894 1.197.227-.167.53-.374.88-.527.357-.157.61-.18.78-.147.167.03.247.11.247.11s-.12.204-.346.44c-.227.237-.567.504-.954.624-.307.097-.524.077-.677.03a.627.627 0 0 1-.28-.18 6.959 6.959 0 0 1-1.19.904c.263-.097.613-.214.993-.264.387-.053.637-.003.79.077a.483.483 0 0 1 .207.177s-.17.16-.453.327c-.284.166-.684.326-1.09.336-.321.007-.528-.073-.658-.16a.6.6 0 0 1-.22-.25 6.937 6.937 0 0 1-1.397.534c.283-.02.647-.03 1.027.026.383.06.61.177.737.294.127.116.15.227.15.227s-.21.106-.53.186c-.317.08-.747.124-1.14.017-.31-.083-.484-.217-.588-.34a.597.597 0 0 1-.14-.304c-.39.074-.787.117-1.187.124-.073 0-.133-.04-.133-.09 0-.05.056-.094.13-.094a6.705 6.705 0 0 0 1.154-.12.726.726 0 0 1 .013-.333c.037-.15.123-.337.29-.544a3.2 3.2 0 0 1 .637-.597c.187-.136.327-.21.327-.21s.07.087.1.25c.03.164.027.407-.164.707-.186.294-.48.497-.726.617.466-.123.92-.297 1.35-.517a.72.72 0 0 1-.08-.323 1.466 1.466 0 0 1 .127-.604c.126-.317.303-.567.447-.75a3.16 3.16 0 0 1 .256-.293s.09.063.167.213c.077.147.14.384.04.724a1.85 1.85 0 0 1-.524.797c.414-.25.8-.544 1.154-.874a.711.711 0 0 1-.166-.287 1.481 1.481 0 0 1-.047-.617c.037-.337.133-.63.22-.847.087-.217.163-.353.163-.353s.107.036.22.156c.114.12.24.327.237.684-.003.347-.14.677-.283.91a6.98 6.98 0 0 0 .863-1.16.696.696 0 0 1-.24-.23 1.438 1.438 0 0 1-.216-.577 3.278 3.278 0 0 1-.027-.87 2.57 2.57 0 0 1 .06-.384s.11.007.257.09c.143.084.32.247.42.59.097.337.057.69-.017.954.217-.433.384-.887.504-1.357a.736.736 0 0 1-.297-.15 1.497 1.497 0 0 1-.37-.494 3.253 3.253 0 0 1-.27-.83 2.351 2.351 0 0 1-.05-.387s.11-.027.27.017c.16.04.377.15.567.45.187.293.247.647.25.917.087-.477.12-.96.103-1.444a.757.757 0 0 1-.326-.063 1.491 1.491 0 0 1-.494-.374 3.124 3.124 0 0 1-.487-.723 3.56 3.56 0 0 1-.157-.357s.097-.054.264-.06c.166-.004.403.036.67.273.26.234.417.554.497.814-.05-.48-.15-.957-.3-1.417a.698.698 0 0 1-.33.03 1.753 1.753 0 0 1-.564-.234z" fill="#A0A0A0"/></svg>