<svg width="32" height="32" fill="none" xmlns="http://www.w3.org/2000/svg"><path d="M32 24.694A7.303 7.303 0 0 1 24.694 32H7.306A7.303 7.303 0 0 1 0 24.694V7.313A7.314 7.314 0 0 1 7.313 0H24.58A7.416 7.416 0 0 1 32 7.419v17.275z" fill="url(#paint0_radial)"/><path d="M20.45 4.413h-8.9a7.146 7.146 0 0 0-7.144 7.144v8.893a7.136 7.136 0 0 0 7.144 7.138h8.894a7.135 7.135 0 0 0 7.137-7.138v-8.893a7.127 7.127 0 0 0-7.131-7.144zm4.913 15.181a5.767 5.767 0 0 1-5.77 5.769h-7.187a5.767 5.767 0 0 1-5.769-5.769v-7.187a5.767 5.767 0 0 1 5.77-5.77h7.187a5.77 5.77 0 0 1 5.768 5.77v7.187z" fill="#fff"/><path d="M16.313 9.938a6.107 6.107 0 1 0 6.106 6.106 6.111 6.111 0 0 0-6.106-6.107zm0 9.774a3.673 3.673 0 0 1-3.675-3.674 3.673 3.673 0 0 1 3.675-3.675 3.677 3.677 0 0 1 3.675 3.675 3.68 3.68 0 0 1-3.675 3.674zm7.231-9.868a1.55 1.55 0 1 1-3.1 0c0-.856.693-1.556 1.55-1.556.856 0 1.55.694 1.55 1.556z" fill="#fff"/><defs><radialGradient id="paint0_radial" cx="0" cy="0" r="1" gradientUnits="userSpaceOnUse" gradientTransform="matrix(42.4048 0 0 42.4036 9.373 34.477)"><stop offset=".097" stop-color="#FFD87A"/><stop offset=".143" stop-color="#FCCE78"/><stop offset=".226" stop-color="#F5B471"/><stop offset=".338" stop-color="#EB8D65"/><stop offset=".449" stop-color="#E36058"/><stop offset=".679" stop-color="#CD3694"/><stop offset="1" stop-color="#6668B0"/></radialGradient></defs></svg>