<svg width="26" height="26" fill="none" xmlns="http://www.w3.org/2000/svg"><path d="M24.425 1.4c-1.3-1.3-3-1.4-3.8-1.4h-.2c-1 0-2 .3-2.9 1h-3.5c-.2 0-.5.1-.6.3l-6.4 6.3c-.3.4-.3.9 0 1.3.2.1.4.2.6.2.2 0 .4-.1.6-.3l6.1-6.1h1.3l-9 9c-3.1 3.1-5.3 9.3-5.4 9.6-.1.2-.1.4-.1.6v1c0 .2 0 .4.1.6l-1 1c-.3.3-.3.8 0 1.1.1.1.3.2.5.2s.4-.1.5-.2l1.1-1.1c.2.1.4.1.6.1h1c.2 0 .4 0 .6-.1.3-.1 6.6-2.4 9.5-5.3l9.7-9.7c.9-.9 2-2.4 2.1-4.1.1-1.6-.4-3-1.4-4zm-20.5 21.5h-1v-1s.5-1.4 1.3-3.2l2.8 2.9c-1.7.8-3.1 1.3-3.1 1.3zm8.9-5c-1.1 1.1-2.8 2.1-4.4 3l-3.5-3.5c.8-1.6 1.8-3.2 3-4.4l3.6-3.6 4.9 5c-1.4 1.4-2.8 2.7-3.6 3.5zm11.3-12.6c0 1.1-.9 2.2-1.6 2.9l-5.2 5.2-4.9-5 5.2-5.2c.8-.8 1.8-1.5 2.9-1.5.7 0 1.8.1 2.6.9.9.9 1 1.9 1 2.7z" fill="#BBBCC5"/></svg>