<svg width="32" height="18" fill="none" xmlns="http://www.w3.org/2000/svg"><path d="M27.54 11.445c1.062 1.03 2.182 2 3.134 3.134.42.503.819 1.023 1.124 1.608.431.832.04 1.746-.71 1.796l-4.662-.002c-1.202.1-2.161-.382-2.967-1.2-.646-.653-1.244-1.348-1.864-2.024-.255-.276-.521-.535-.84-.74-.636-.411-1.188-.286-1.552.374-.37.671-.454 1.414-.49 2.162-.05 1.091-.382 1.378-1.485 1.428-2.357.11-4.593-.244-6.67-1.426-1.832-1.041-3.253-2.512-4.49-4.177C3.663 9.136 1.819 5.574.163 1.912-.211 1.087.062.644.977.628 2.498.598 4.02.601 5.541.626c.618.01 1.028.362 1.266.942.823 2.011 1.83 3.924 3.094 5.698.336.472.68.944 1.168 1.276.54.368.952.246 1.207-.352.161-.38.232-.789.268-1.195.12-1.399.136-2.795-.075-4.189-.13-.87-.622-1.433-1.496-1.597-.445-.084-.379-.249-.163-.502.374-.436.727-.707 1.43-.707h5.268c.83.163 1.014.533 1.127 1.363l.005 5.817c-.01.32.161 1.274.743 1.486.466.152.773-.219 1.052-.512 1.262-1.331 2.162-2.904 2.966-4.532.357-.716.664-1.46.962-2.203.22-.551.566-.823 1.19-.81l5.072.004c.15 0 .302.002.448.027.854.145 1.088.51.824 1.34-.415 1.3-1.225 2.385-2.016 3.474-.845 1.163-1.75 2.286-2.588 3.456-.77 1.069-.71 1.607.248 2.535z" fill="#fff"/></svg>