<svg width="24" height="24" fill="none" xmlns="http://www.w3.org/2000/svg"><path d="M17.4 3.9C16.1 3.9 15 5 15 6.4c0 1.3 1.1 2.4 2.4 2.4 1.3 0 2.4-1.1 2.4-2.4.1-1.4-1-2.5-2.4-2.5zm.1 3.8c-.7 0-1.3-.6-1.3-1.3 0-.7.6-1.3 1.3-1.3.7 0 1.3.6 1.3 1.3 0 .7-.6 1.3-1.3 1.3zM16 0c-4.4 0-8 3.6-8 8 0 .7.1 1.4.3 2.1L.4 18c-.2.2-.3.4-.3.7L0 22.9c0 .3.1.5.3.7.2.2.4.3.7.3h3.9c.3 0 .5-.1.7-.3.2-.2.3-.5.3-.7V21h1.9c.3 0 .5-.1.7-.3.2-.2.4-.5.4-.8V18h1.9c.3 0 .5-.1.7-.3l2.1-2.1c.7.2 1.5.4 2.3.4 4.4 0 8-3.6 8-7.9C23.9 3.6 20.3 0 16 0zm-5.5 16.1H8.9c-1 0-1.8.8-1.8 1.8v1.3H5.9c-1 0-1.8.8-1.8 1.8v1.2H1.8v-3.1L9 11.8c.7 1.2 1.7 2.2 2.9 2.9l-1.4 1.4zm5.5-1.8c-1.8 0-3.4-.7-4.5-1.9-1.2-1.2-1.9-2.7-1.9-4.5 0-3.5 2.9-6.4 6.4-6.4 3.5 0 6.4 2.9 6.4 6.4 0 3.5-2.9 6.4-6.4 6.4z" fill="#BBBCC5"/></svg>