<svg width="33" height="21" fill="none" xmlns="http://www.w3.org/2000/svg"><path d="M11.517 12.666h5.129a6.526 6.526 0 0 1-6.193 4.348c-3.463-.025-6.327-2.795-6.462-6.256-.144-3.709 2.833-6.772 6.511-6.772a6.49 6.49 0 0 1 4.374 1.69c.274.249.691.25.96-.003L17.72 3.9a.704.704 0 0 0 .002-1.023A10.464 10.464 0 0 0 10.711.002C4.921-.111.041 4.635.001 10.425-.04 16.26 4.676 21 10.501 21c5.602 0 10.178-4.385 10.484-9.91.009-.069.014-2.41.014-2.41h-9.483a.704.704 0 0 0-.704.704v2.579c0 .388.316.703.704.703zm18.225-3.734V6.577c0-.319-.287-.577-.64-.577h-2.204c-.353 0-.64.258-.64.577v2.355H23.64c-.354 0-.641.258-.641.577v1.982c0 .319.287.577.64.577h2.618v2.355c0 .319.287.577.64.577h2.204c.353 0 .64-.258.64-.577v-2.355h2.617c.354 0 .641-.258.641-.577V9.51c0-.319-.287-.577-.64-.577h-2.618z" fill="#F34A38"/></svg>