<svg width="24" height="24" viewBox="0 0 24 24" fill="none" xmlns="http://www.w3.org/2000/svg">
<path d="M17.4 3.9C16.1 3.9 15 5 15 6.4C15 7.7 16.1 8.8 17.4 8.8C18.7 8.8 19.8 7.7 19.8 6.4C19.9 5 18.8 3.9 17.4 3.9ZM17.5 7.7C16.8 7.7 16.2 7.1 16.2 6.4C16.2 5.7 16.8 5.1 17.5 5.1C18.2 5.1 18.8 5.7 18.8 6.4C18.8 7.1 18.2 7.7 17.5 7.7ZM16 0C11.6 0 8 3.6 8 8C8 8.7 8.1 9.4 8.3 10.1L0.4 18C0.2 18.2 0.1 18.4 0.1 18.7L0 22.9C0 23.2 0.1 23.4 0.3 23.6C0.5 23.8 0.7 23.9 1 23.9H4.9C5.2 23.9 5.4 23.8 5.6 23.6C5.8 23.4 5.9 23.1 5.9 22.9V21H7.8C8.1 21 8.3 20.9 8.5 20.7C8.7 20.5 8.9 20.2 8.9 19.9V18H10.8C11.1 18 11.3 17.9 11.5 17.7L13.6 15.6C14.3 15.8 15.1 16 15.9 16C20.3 16 23.9 12.4 23.9 8.1C23.9 3.6 20.3 0 16 0ZM10.5 16.1H8.9C7.9 16.1 7.1 16.9 7.1 17.9V19.2H5.9C4.9 19.2 4.1 20 4.1 21V22.2H1.8V19.1L9 11.8C9.7 13 10.7 14 11.9 14.7L10.5 16.1ZM16 14.3C14.2 14.3 12.6 13.6 11.5 12.4C10.3 11.2 9.6 9.7 9.6 7.9C9.6 4.4 12.5 1.5 16 1.5C19.5 1.5 22.4 4.4 22.4 7.9C22.4 11.4 19.5 14.3 16 14.3Z" fill="#BBBCC5"/>
</svg>
