<svg width="32" height="32" viewBox="0 0 32 32" fill="none" xmlns="http://www.w3.org/2000/svg">
<path d="M32 24.6938C32 28.7313 28.7313 32 24.6938 32H7.30625C3.26875 32 0 28.7313 0 24.6938V7.3125C0 3.275 3.275 0 7.3125 0H24.5812C28.6812 0 32 3.31875 32 7.41875V24.6938Z" fill="url(#paint0_radial)"/>
<path d="M20.45 4.41284H11.55C7.60625 4.41284 4.40625 7.61284 4.40625 11.5566V20.4503C4.40625 24.3941 7.6 27.5878 11.55 27.5878H20.4438C24.3875 27.5878 27.5812 24.3941 27.5812 20.4503V11.5566C27.5875 7.60659 24.3938 4.41284 20.45 4.41284ZM25.3625 19.5941C25.3625 22.7816 22.7812 25.3628 19.5938 25.3628H12.4062C9.21875 25.3628 6.6375 22.7816 6.6375 19.5941V12.4066C6.6375 9.21909 9.21875 6.63784 12.4062 6.63784H19.5938C22.7812 6.63784 25.3625 9.22534 25.3625 12.4066V19.5941Z" fill="white"/>
<path d="M16.3126 9.9375C12.9376 9.9375 10.2064 12.6688 10.2064 16.0438C10.2064 19.4125 12.9376 22.15 16.3126 22.15C19.6814 22.15 22.4189 19.4188 22.4189 16.0438C22.4126 12.6688 19.6814 9.9375 16.3126 9.9375ZM16.3126 19.7125C14.2814 19.7125 12.6376 18.0688 12.6376 16.0375C12.6376 14.0063 14.2814 12.3625 16.3126 12.3625C18.3376 12.3625 19.9876 14.0063 19.9876 16.0375C19.9814 18.0688 18.3376 19.7125 16.3126 19.7125Z" fill="white"/>
<path d="M23.5437 9.84409C23.5437 10.7003 22.8499 11.3941 21.9937 11.3941C21.1374 11.3941 20.4437 10.7003 20.4437 9.84409C20.4437 8.98784 21.1374 8.28784 21.9937 8.28784C22.8499 8.28784 23.5437 8.98159 23.5437 9.84409Z" fill="white"/>
<defs>
<radialGradient id="paint0_radial" cx="0" cy="0" r="1" gradientUnits="userSpaceOnUse" gradientTransform="translate(9.37303 34.4775) scale(42.4048 42.4036)">
<stop offset="0.0969388" stop-color="#FFD87A"/>
<stop offset="0.1426" stop-color="#FCCE78"/>
<stop offset="0.2263" stop-color="#F5B471"/>
<stop offset="0.3378" stop-color="#EB8D65"/>
<stop offset="0.449" stop-color="#E36058"/>
<stop offset="0.6786" stop-color="#CD3694"/>
<stop offset="1" stop-color="#6668B0"/>
</radialGradient>
</defs>
</svg>
