<svg width="26" height="26" viewBox="0 0 26 26" fill="none" xmlns="http://www.w3.org/2000/svg">
<path d="M24.425 1.4C23.125 0.1 21.425 0 20.625 0H20.425C19.425 0 18.425 0.3 17.525 1C17.425 1 17.325 1 17.325 1H14.025C13.825 1 13.525 1.1 13.425 1.3L7.025 7.6C6.725 8 6.725 8.5 7.025 8.9C7.225 9 7.425 9.1 7.625 9.1C7.825 9.1 8.025 9 8.225 8.8L14.325 2.7H15.625L6.625 11.7C3.525 14.8 1.325 21 1.225 21.3C1.125 21.5 1.125 21.7 1.125 21.9V22.9C1.125 23.1 1.125 23.3 1.225 23.5L0.225 24.5C-0.075 24.8 -0.075 25.3 0.225 25.6C0.325 25.7 0.525 25.8 0.725 25.8C0.925 25.8 1.125 25.7 1.225 25.6L2.325 24.5C2.525 24.6 2.725 24.6 2.925 24.6H3.925C4.125 24.6 4.325 24.6 4.525 24.5C4.825 24.4 11.125 22.1 14.025 19.2L23.725 9.5C24.625 8.6 25.725 7.1 25.825 5.4C25.925 3.8 25.425 2.4 24.425 1.4ZM3.925 22.9H2.925V21.9C2.925 21.9 3.425 20.5 4.225 18.7L7.025 21.6C5.325 22.4 3.925 22.9 3.925 22.9ZM12.825 17.9C11.725 19 10.025 20 8.425 20.9L4.925 17.4C5.725 15.8 6.725 14.2 7.925 13C8.825 12.1 10.125 10.8 11.525 9.4L16.425 14.4C15.025 15.8 13.625 17.1 12.825 17.9ZM24.125 5.3C24.125 6.4 23.225 7.5 22.525 8.2C21.925 8.8 19.625 11.1 17.325 13.4L12.425 8.4C14.625 6.2 16.825 4 17.625 3.2C18.425 2.4 19.425 1.7 20.525 1.7C21.225 1.7 22.325 1.8 23.125 2.6C24.025 3.5 24.125 4.5 24.125 5.3Z" fill="#BBBCC5"/>
</svg>
