<svg width="56" height="46" viewBox="0 0 56 46" fill="none" xmlns="http://www.w3.org/2000/svg">
<path d="M21.5558 4.24621C21.5558 1.89831 19.6575 0 17.3096 0C14.9617 0 13.0634 1.89831 13.0634 4.24621C13.0634 6.59411 14.9617 8.49242 17.3096 8.49242C19.6575 8.49242 21.5558 6.59411 21.5558 4.24621Z" fill="#BBBCC5"/>
<path d="M22.5049 45.984H14.8118C16.4103 45.5094 18.6334 43.0866 19.3327 40.8136L23.0294 28.9742H26.3515L36.3925 28.9492C38.7654 28.9492 41.2382 27.2507 42.0624 25.1526L43.5361 20.3568L25.727 20.4318L27.0758 16.0357C27.7752 13.7627 30.3729 11.8894 32.8706 11.8894L49.7806 11.7895C52.3033 11.7645 55.1258 10.1909 56 8.91705L53.4773 17.1097L49.1311 30.6726C47.7823 34.8939 45.0348 37.4416 39.9643 37.4666L29.3238 37.4915L28 41.7627C27.3256 44.0857 24.8278 45.984 22.5049 45.984Z" fill="#BBBCC5"/>
<path d="M14.6619 11.8145H19.4077L10.2908 41.7128C9.56646 44.0357 7.09367 45.934 4.77074 45.934H0L1.02409 42.6369C1.02409 42.6245 1.03033 42.612 1.03657 42.5995C1.04282 42.587 1.04906 42.5745 1.04906 42.562L9.16682 16.0357C9.86619 13.7128 12.364 11.8145 14.6619 11.8145Z" fill="#BBBCC5"/>
</svg>
